<?xml version="1.0" encoding="UTF-8" standalone="no"?>
<svg
   width="71.817696"
   zoomAndPan="magnify"
   viewBox="0 0 53.863273 63.056675"
   height="84.075569"
   preserveAspectRatio="xMidYMid"
   version="1.0"
   id="svg5"
   sodipodi:docname="logo.svg"
   inkscape:version="1.3.2 (091e20ef0f, 2023-11-25)"
   xmlns:inkscape="http://www.inkscape.org/namespaces/inkscape"
   xmlns:sodipodi="http://sodipodi.sourceforge.net/DTD/sodipodi-0.dtd"
   xmlns="http://www.w3.org/2000/svg"
   xmlns:svg="http://www.w3.org/2000/svg">
  <sodipodi:namedview
     id="namedview5"
     pagecolor="#ffffff"
     bordercolor="#000000"
     borderopacity="0.25"
     inkscape:showpageshadow="2"
     inkscape:pageopacity="0.0"
     inkscape:pagecheckerboard="0"
     inkscape:deskcolor="#d1d1d1"
     inkscape:zoom="1.508"
     inkscape:cx="34.482759"
     inkscape:cy="96.153846"
     inkscape:window-width="1912"
     inkscape:window-height="1040"
     inkscape:window-x="0"
     inkscape:window-y="0"
     inkscape:window-maximized="0"
     inkscape:current-layer="svg5" />
  <defs
     id="defs2">
    <clipPath
       id="284354bd57">
      <path
         d="m 160.56641,168 h 54 v 50.98047 h -54 z m 0,0"
         clip-rule="nonzero"
         id="path1" />
    </clipPath>
    <clipPath
       id="4c569cadb7">
      <path
         d="m 160.56641,155.98047 h 54 V 198 h -54 z m 0,0"
         clip-rule="nonzero"
         id="path2" />
    </clipPath>
  </defs>
  <path
     fill="#9c3636"
     d="m 36.82422,9.36721 10.15625,7.07031 5.27734,3.67187 c 0.10547,0.0703 0.21875,0.12891 0.33594,0.15235 L 50.64062,18.89846 37.17187,9.51955 C 37.05859,9.43755 36.94141,9.39064 36.82422,9.35549 Z m 0,0"
     fill-opacity="1"
     fill-rule="evenodd"
     id="path3" />
  <g
     clip-path="url(#284354bd57)"
     id="g4"
     transform="translate(-160.5625,-155.96873)">
    <path
       fill="#a44f30"
       d="m 167.44922,196.36328 v -3.16406 c 0,-0.39453 0.19531,-0.71875 0.53906,-0.90235 0.34766,-0.17187 0.73047,-0.14843 1.05469,0.0703 l 17.61328,12.27734 c 0.35937,0.24219 0.80859,0.24219 1.15625,0 l 4.51562,-3.14062 c 0.27735,-0.19532 0.44141,-0.48438 0.44141,-0.83204 0,-0.34765 -0.15234,-0.63671 -0.44141,-0.83203 L 167.44922,182.5 l -5.28125,-3.67188 c -0.3125,-0.21875 -0.70313,-0.24218 -1.05078,-0.0703 -0.34766,0.17578 -0.54297,0.50781 -0.54297,0.90235 v 20.29687 c 0,0.34375 0.14844,0.63281 0.4375,0.83203 l 25.91015,18.05469 c 0.35938,0.24219 0.8086,0.24219 1.15625,0 l 25.91016,-18.05469 c 0.27734,-0.19922 0.4375,-0.48828 0.4375,-0.83203 v -14.9375 c 0,-0.33594 -0.14844,-0.63672 -0.4375,-0.83203 l -6.43359,-4.48047 -15.69922,-10.94141 c -0.17188,-0.125 -0.35938,-0.18359 -0.57813,-0.18359 h -9.03125 c -0.45312,0 -0.83203,0.27734 -0.97265,0.70703 -0.13672,0.42578 0.0234,0.875 0.39453,1.12891 l 25.45703,17.73047 c 0.27734,0.19922 0.42969,0.5 0.42969,0.83203 0,2.20703 0,4.41406 0,6.62109 0,0.86719 -0.0117,1.03906 -0.44141,1.38672 -0.18359,0.14844 -0.42578,0.33203 -0.71484,0.55469 -3.9961,3.02344 -17.03907,12.01172 -18.32032,12.91406 -0.35937,0.24219 -0.80859,0.24219 -1.15625,0 L 167.88672,197.1836 c -0.27735,-0.19531 -0.4375,-0.48437 -0.4375,-0.83203 z m 0,0"
       fill-opacity="1"
       fill-rule="nonzero"
       id="path4" />
  </g>
  <g
     clip-path="url(#4c569cadb7)"
     id="g5"
     transform="translate(-160.5625,-155.96873)">
    <path
       fill="#e0b15e"
       d="m 198.42969,197.24219 4.89453,-3.41016 c 0.21094,-0.14844 0.32422,-0.36719 0.32422,-0.62109 0,-0.25391 -0.11328,-0.48438 -0.32422,-0.625 L 167.875,167.85547 c -0.27734,-0.19531 -0.4375,-0.48438 -0.4375,-0.83203 v -3.16407 c 0,-0.55468 0.44922,-1.01953 1.01562,-1.01953 h 25.04297 c 0.21875,0 0.40235,0.0586 0.57813,0.1875 l 13.46875,9.37891 5.27734,3.67187 c 0.32422,0.21875 0.70313,0.24219 1.05078,0.0703 0.34766,-0.1836 0.54297,-0.50782 0.54297,-0.90235 v -18.26172 c 0,-0.55468 -0.44922,-1.01562 -1.01562,-1.01562 h -51.82032 c -0.55468,0 -1.01562,0.44922 -1.01562,1.01562 v 14 c 0,0.34766 0.15234,0.63672 0.4375,0.83204 l 6.4375,4.48046 30.11328,20.9336 c 0.26563,0.18359 0.60156,0.18359 0.87891,0 z m 0,0"
       fill-opacity="1"
       fill-rule="nonzero"
       id="path5" />
  </g>
</svg>
