<?xml version="1.0" encoding="UTF-8" standalone="no"?>
<svg
   width="276.08344"
   zoomAndPan="magnify"
   viewBox="0 0 207.06258 62.546943"
   height="83.395927"
   preserveAspectRatio="xMidYMid"
   version="1.0"
   id="svg140"
   sodipodi:docname="logo_with_slogan.svg"
   inkscape:version="1.3.2 (091e20ef0f, 2023-11-25)"
   xmlns:inkscape="http://www.inkscape.org/namespaces/inkscape"
   xmlns:sodipodi="http://sodipodi.sourceforge.net/DTD/sodipodi-0.dtd"
   xmlns="http://www.w3.org/2000/svg"
   xmlns:svg="http://www.w3.org/2000/svg">
  <sodipodi:namedview
     id="namedview140"
     pagecolor="#ffffff"
     bordercolor="#000000"
     borderopacity="0.25"
     inkscape:showpageshadow="2"
     inkscape:pageopacity="0.0"
     inkscape:pagecheckerboard="0"
     inkscape:deskcolor="#d1d1d1"
     inkscape:zoom="2.1912187"
     inkscape:cx="190.76142"
     inkscape:cy="54.764044"
     inkscape:window-width="1912"
     inkscape:window-height="1040"
     inkscape:window-x="0"
     inkscape:window-y="0"
     inkscape:window-maximized="0"
     inkscape:current-layer="svg140" />
  <defs
     id="defs2">
    <g
       id="g1" />
    <clipPath
       id="3ebf941449">
      <path
         d="m 79.796875,170 h 53.999995 v 50.40625 H 79.796875 Z m 0,0"
         clip-rule="nonzero"
         id="path1" />
    </clipPath>
    <clipPath
       id="7b0bfa93c5">
      <path
         d="M 79.796875,157.40625 H 133.79687 V 199 H 79.796875 Z m 0,0"
         clip-rule="nonzero"
         id="path2" />
    </clipPath>
  </defs>
  <path
     fill="#9c3636"
     d="m 36.828121,9.371089 10.15235,7.06641 5.27734,3.67578 c 0.10547,0.0664 0.21875,0.125 0.33594,0.14844 l -1.95313,-1.36328 -13.46875,-9.37891 c -0.11328,-0.082 -0.23046,-0.1289 -0.34375,-0.16015 z m 0,0"
     fill-opacity="1"
     fill-rule="evenodd"
     id="path3" />
  <g
     clip-path="url(#3ebf941449)"
     id="g4"
     transform="translate(-79.792969,-157.39453)">
    <path
       fill="#a44f30"
       d="M 86.679688,197.78906 V 194.625 c 0,-0.39063 0.195312,-0.71484 0.542968,-0.90234 0.34375,-0.17188 0.726563,-0.14844 1.050782,0.0703 l 17.613282,12.28125 c 0.35937,0.24219 0.80859,0.24219 1.15625,0 l 4.51562,-3.14453 C 111.83594,202.73437 112,202.44531 112,202.09766 c 0,-0.34375 -0.15234,-0.63282 -0.44141,-0.83204 l -24.878902,-17.33593 -5.28125,-3.67578 c -0.3125,-0.21875 -0.703126,-0.24219 -1.050782,-0.0664 -0.347656,0.17187 -0.542968,0.50781 -0.542968,0.89844 v 20.29687 c 0,0.34766 0.152343,0.63672 0.441406,0.83203 l 25.906246,18.05469 c 0.35938,0.24219 0.8086,0.24219 1.15625,0 l 25.91016,-18.05469 c 0.27734,-0.19531 0.4375,-0.48437 0.4375,-0.83203 v -14.9375 c 0,-0.33203 -0.14844,-0.63281 -0.4375,-0.82812 l -6.43359,-4.48438 -15.69922,-10.9375 c -0.17188,-0.1289 -0.35938,-0.1875 -0.57813,-0.1875 h -9.03125 c -0.45312,0 -0.83203,0.27735 -0.97265,0.70703 -0.13672,0.42578 0.0234,0.87891 0.39453,1.13282 l 25.45703,17.73046 c 0.27734,0.19532 0.42969,0.4961 0.42969,0.83204 0,2.20703 0,4.41015 0,6.61718 0,0.86719 -0.0117,1.03907 -0.44141,1.38672 -0.18359,0.14844 -0.42578,0.33594 -0.71484,0.55469 -3.9961,3.02734 -17.03907,12.01172 -18.32032,12.91406 -0.35937,0.24219 -0.80859,0.24219 -1.15625,0 L 87.117188,198.60937 c -0.277344,-0.19531 -0.4375,-0.48437 -0.4375,-0.83203 z m 0,0"
       fill-opacity="1"
       fill-rule="nonzero"
       id="path4" />
  </g>
  <g
     clip-path="url(#7b0bfa93c5)"
     id="g5"
     transform="translate(-79.792969,-157.39453)">
    <path
       fill="#e0b15e"
       d="m 117.66016,198.66797 4.89453,-3.40625 c 0.21094,-0.15235 0.32422,-0.3711 0.32422,-0.625 0,-0.25391 -0.11328,-0.48438 -0.32422,-0.625 L 87.105469,169.28125 c -0.277344,-0.19531 -0.4375,-0.48438 -0.4375,-0.83203 v -3.16406 c 0,-0.55469 0.449219,-1.01563 1.015625,-1.01563 h 25.042966 c 0.21875,0 0.40235,0.0586 0.57813,0.18359 l 13.46875,9.37891 5.27734,3.67578 c 0.32422,0.21875 0.70703,0.24219 1.05078,0.0664 0.34766,-0.1836 0.54297,-0.50781 0.54297,-0.89844 v -18.26172 c 0,-0.55469 -0.44922,-1.01953 -1.01562,-1.01953 H 80.808594 c -0.554688,0 -1.015625,0.45313 -1.015625,1.01953 v 14 c 0,0.34375 0.152343,0.63281 0.441406,0.82813 l 6.433594,4.48437 30.113281,20.92969 c 0.26563,0.18359 0.60156,0.18359 0.87891,0 z m 0,0"
       fill-opacity="1"
       fill-rule="nonzero"
       id="path5" />
  </g>
  <g
     fill="#a44f30"
     fill-opacity="1"
     id="g8"
     transform="translate(-79.792969,-157.39453)">
    <g
       transform="translate(137.45232,179.67658)"
       id="g7">
      <g
         id="g6">
        <path
           d="m 7.34375,-4.28125 h 7.5 V 0 H 1.375 v -21.953125 h 13.15625 v 4.28125 h -7.1875 v 4.46875 h 6.1875 v 4.28125 h -6.1875 z m 0,0"
           id="path6" />
      </g>
    </g>
  </g>
  <g
     fill="#a44f30"
     fill-opacity="1"
     id="g11"
     transform="translate(-79.792969,-157.39453)">
    <g
       transform="translate(157.58355,179.67658)"
       id="g10">
      <g
         id="g9">
        <path
           d="M 6.703125,0 H 1.375 v -21.953125 h 6.515625 l 3.5625,11.734375 3.5625,-11.734375 H 21.53125 V 0 H 16.234375 V -13.953125 L 13.5,-4.75 H 9.40625 l -2.703125,-9.125 z m 0,0"
           id="path8" />
      </g>
    </g>
  </g>
  <g
     fill="#a44f30"
     fill-opacity="1"
     id="g14"
     transform="translate(-79.792969,-157.39453)">
    <g
       transform="translate(185.26763,179.67658)"
       id="g13">
      <g
         id="g12">
        <path
           d="m 10.5625,-13.703125 v -3.5625 c 0,-0.5 -0.289062,-0.75 -0.859375,-0.75 H 7.25 v 5.0625 h 2.453125 c 0.570313,0 0.859375,-0.25 0.859375,-0.75 z m 0,9.015625 v -3.578125 c 0,-0.507813 -0.289062,-0.765625 -0.859375,-0.765625 H 7.25 v 5.09375 h 2.453125 c 0.570313,0 0.859375,-0.25 0.859375,-0.75 z M 1.375,-21.953125 h 10.046875 c 3.34375,0 5.015625,1.417969 5.015625,4.25 v 2.796875 c 0,1.980469 -0.546875,3.265625 -1.640625,3.859375 0.644531,0.28125 1.078125,0.703125 1.296875,1.265625 0.226562,0.554688 0.34375,1.308594 0.34375,2.265625 v 3.28125 C 16.4375,-1.410156 14.765625,0 11.421875,0 H 1.375 Z m 0,0"
           id="path11" />
      </g>
    </g>
  </g>
  <g
     fill="#a44f30"
     fill-opacity="1"
     id="g17"
     transform="translate(-79.792969,-157.39453)">
    <g
       transform="translate(207.68863,179.67658)"
       id="g16">
      <g
         id="g15">
        <path
           d="m 7.34375,-4.28125 h 7.5 V 0 H 1.375 v -21.953125 h 13.15625 v 4.28125 h -7.1875 v 4.46875 h 6.1875 v 4.28125 h -6.1875 z m 0,0"
           id="path14" />
      </g>
    </g>
  </g>
  <g
     fill="#a44f30"
     fill-opacity="1"
     id="g20"
     transform="translate(-79.792969,-157.39453)">
    <g
       transform="translate(227.81987,179.67658)"
       id="g19">
      <g
         id="g18">
        <path
           d="m 1.703125,-21.953125 h 10.09375 c 3.34375,0 5.015625,1.417969 5.015625,4.25 v 13.46875 C 16.8125,-1.410156 15.140625,0 11.796875,0 H 1.703125 Z M 10.84375,-4.6875 v -12.578125 c 0,-0.5 -0.289062,-0.75 -0.859375,-0.75 H 7.6875 V -3.9375 h 2.296875 c 0.570313,0 0.859375,-0.25 0.859375,-0.75 z m 0,0"
           id="path17" />
      </g>
    </g>
  </g>
  <g
     fill="#e0b15e"
     fill-opacity="1"
     id="g23"
     transform="translate(-79.792969,-157.39453)">
    <g
       transform="translate(137.45232,206.78228)"
       id="g22">
      <g
         id="g21">
        <path
           d="m 9.78125,-5.03125 v -3.109375 c 0,-0.5 -0.289062,-0.75 -0.859375,-0.75 H 5.640625 C 3.953125,-8.890625 2.757812,-9.257812 2.0625,-10 1.375,-10.738281 1.03125,-11.804688 1.03125,-13.203125 v -4.5 c 0,-2.832031 1.660156,-4.25 4.984375,-4.25 h 4.6875 c 3.320313,0 4.984375,1.417969 4.984375,4.25 v 2.625 H 9.703125 v -1.84375 c 0,-0.5 -0.28125,-0.75 -0.84375,-0.75 h -1 c -0.5625,0 -0.84375,0.25 -0.84375,0.75 v 3.25 c 0,0.5 0.28125,0.75 0.84375,0.75 h 3.21875 c 1.6875,0 2.890625,0.355469 3.609375,1.0625 0.71875,0.710937 1.078125,1.746094 1.078125,3.109375 v 4.515625 c 0,2.824219 -1.667969,4.234375 -5,4.234375 H 6.125 C 2.769531,0 1.09375,-1.410156 1.09375,-4.234375 V -6.875 h 5.984375 v 1.84375 c 0,0.5 0.285156,0.75 0.859375,0.75 h 0.984375 c 0.570313,0 0.859375,-0.25 0.859375,-0.75 z m 0,0"
           id="path20" />
      </g>
    </g>
  </g>
  <g
     fill="#e0b15e"
     fill-opacity="1"
     id="g26"
     transform="translate(-79.792969,-157.39453)">
    <g
       transform="translate(159.01893,206.78228)"
       id="g25">
      <g
         id="g24">
        <path
           d="M 12.03125,0 H 6.046875 V -7.109375 L 0,-21.953125 h 6.125 l 2.859375,9.265625 2.671875,-9.265625 H 17.75 l -5.71875,14.78125 z m 0,0"
           id="path23" />
      </g>
    </g>
  </g>
  <g
     fill="#e0b15e"
     fill-opacity="1"
     id="g29"
     transform="translate(-79.792969,-157.39453)">
    <g
       transform="translate(181.54246,206.78228)"
       id="g28">
      <g
         id="g27">
        <path
           d="m 9.78125,-5.03125 v -3.109375 c 0,-0.5 -0.289062,-0.75 -0.859375,-0.75 H 5.640625 C 3.953125,-8.890625 2.757812,-9.257812 2.0625,-10 1.375,-10.738281 1.03125,-11.804688 1.03125,-13.203125 v -4.5 c 0,-2.832031 1.660156,-4.25 4.984375,-4.25 h 4.6875 c 3.320313,0 4.984375,1.417969 4.984375,4.25 v 2.625 H 9.703125 v -1.84375 c 0,-0.5 -0.28125,-0.75 -0.84375,-0.75 h -1 c -0.5625,0 -0.84375,0.25 -0.84375,0.75 v 3.25 c 0,0.5 0.28125,0.75 0.84375,0.75 h 3.21875 c 1.6875,0 2.890625,0.355469 3.609375,1.0625 0.71875,0.710937 1.078125,1.746094 1.078125,3.109375 v 4.515625 c 0,2.824219 -1.667969,4.234375 -5,4.234375 H 6.125 C 2.769531,0 1.09375,-1.410156 1.09375,-4.234375 V -6.875 h 5.984375 v 1.84375 c 0,0.5 0.285156,0.75 0.859375,0.75 h 0.984375 c 0.570313,0 0.859375,-0.25 0.859375,-0.75 z m 0,0"
           id="path26" />
      </g>
    </g>
  </g>
  <g
     fill="#e0b15e"
     fill-opacity="1"
     id="g32"
     transform="translate(-79.792969,-157.39453)">
    <g
       transform="translate(203.10907,206.78228)"
       id="g31">
      <g
         id="g30">
        <path
           d="m 14.59375,-21.953125 v 4.28125 H 10.359375 V 0 H 4.375 V -17.671875 H 0.171875 v -4.28125 z m 0,0"
           id="path29" />
      </g>
    </g>
  </g>
  <g
     fill="#e0b15e"
     fill-opacity="1"
     id="g35"
     transform="translate(-79.792969,-157.39453)">
    <g
       transform="translate(222.65932,206.78228)"
       id="g34">
      <g
         id="g33">
        <path
           d="m 7.34375,-4.28125 h 7.5 V 0 H 1.375 v -21.953125 h 13.15625 v 4.28125 h -7.1875 v 4.46875 h 6.1875 v 4.28125 h -6.1875 z m 0,0"
           id="path32" />
      </g>
    </g>
  </g>
  <g
     fill="#e0b15e"
     fill-opacity="1"
     id="g38"
     transform="translate(-79.792969,-157.39453)">
    <g
       transform="translate(242.79055,206.78228)"
       id="g37">
      <g
         id="g36">
        <path
           d="M 6.703125,0 H 1.375 v -21.953125 h 6.515625 l 3.5625,11.734375 3.5625,-11.734375 H 21.53125 V 0 H 16.234375 V -13.953125 L 13.5,-4.75 H 9.40625 l -2.703125,-9.125 z m 0,0"
           id="path35" />
      </g>
    </g>
  </g>
  <g
     fill="#e0b15e"
     fill-opacity="1"
     id="g41"
     transform="translate(-79.792969,-157.39453)">
    <g
       transform="translate(270.47463,206.78228)"
       id="g40">
      <g
         id="g39">
        <path
           d="m 9.78125,-5.03125 v -3.109375 c 0,-0.5 -0.289062,-0.75 -0.859375,-0.75 H 5.640625 C 3.953125,-8.890625 2.757812,-9.257812 2.0625,-10 1.375,-10.738281 1.03125,-11.804688 1.03125,-13.203125 v -4.5 c 0,-2.832031 1.660156,-4.25 4.984375,-4.25 h 4.6875 c 3.320313,0 4.984375,1.417969 4.984375,4.25 v 2.625 H 9.703125 v -1.84375 c 0,-0.5 -0.28125,-0.75 -0.84375,-0.75 h -1 c -0.5625,0 -0.84375,0.25 -0.84375,0.75 v 3.25 c 0,0.5 0.28125,0.75 0.84375,0.75 h 3.21875 c 1.6875,0 2.890625,0.355469 3.609375,1.0625 0.71875,0.710937 1.078125,1.746094 1.078125,3.109375 v 4.515625 c 0,2.824219 -1.667969,4.234375 -5,4.234375 H 6.125 C 2.769531,0 1.09375,-1.410156 1.09375,-4.234375 V -6.875 h 5.984375 v 1.84375 c 0,0.5 0.285156,0.75 0.859375,0.75 h 0.984375 c 0.570313,0 0.859375,-0.25 0.859375,-0.75 z m 0,0"
           id="path38" />
      </g>
    </g>
  </g>
  <g
     fill="#a44f30"
     fill-opacity="1"
     id="g44"
     transform="translate(-79.792969,-157.39453)">
    <g
       transform="translate(138.7027,219.86335)"
       id="g43">
      <g
         id="g42">
        <path
           d="m 0.28125,-5.703125 c 0,-0.601563 0.140625,-1.066406 0.421875,-1.390625 0.289063,-0.332031 0.726563,-0.5 1.3125,-0.5 0.582031,0 1.015625,0.167969 1.296875,0.5 0.289062,0.324219 0.4375,0.789062 0.4375,1.390625 V -5.40625 H 2.640625 v -0.375 c 0,-0.269531 -0.054687,-0.457031 -0.15625,-0.5625 -0.105469,-0.113281 -0.25,-0.171875 -0.4375,-0.171875 -0.1875,0 -0.335937,0.058594 -0.4375,0.171875 -0.105469,0.105469 -0.15625,0.292969 -0.15625,0.5625 0,0.261719 0.054687,0.492188 0.171875,0.6875 0.113281,0.199219 0.253906,0.386719 0.421875,0.5625 0.175781,0.167969 0.363281,0.339844 0.5625,0.515625 0.195313,0.179687 0.378906,0.371094 0.546875,0.578125 0.175781,0.210938 0.320312,0.445312 0.4375,0.703125 0.113281,0.261719 0.171875,0.574219 0.171875,0.9375 0,0.605469 -0.152344,1.070313 -0.453125,1.390625 C 3.019531,-0.0820312 2.582031,0.078125 2,0.078125 1.425781,0.078125 0.988281,-0.0820312 0.6875,-0.40625 0.394531,-0.726562 0.25,-1.191406 0.25,-1.796875 V -2.3125 h 1.109375 v 0.59375 c 0,0.273438 0.050781,0.460938 0.15625,0.5625 C 1.628906,-1.050781 1.78125,-1 1.96875,-1 c 0.1875,0 0.332031,-0.050781 0.4375,-0.15625 0.113281,-0.101562 0.171875,-0.289062 0.171875,-0.5625 0,-0.257812 -0.058594,-0.488281 -0.171875,-0.6875 C 2.289062,-2.601562 2.144531,-2.785156 1.96875,-2.953125 1.800781,-3.128906 1.617188,-3.304688 1.421875,-3.484375 1.234375,-3.660156 1.050781,-3.851562 0.875,-4.0625 0.707031,-4.269531 0.566406,-4.503906 0.453125,-4.765625 0.335938,-5.035156 0.28125,-5.347656 0.28125,-5.703125 Z m 0,0"
           id="path41" />
      </g>
    </g>
  </g>
  <g
     fill="#a44f30"
     fill-opacity="1"
     id="g47"
     transform="translate(-79.792969,-157.39453)">
    <g
       transform="translate(143.24787,219.86335)"
       id="g46">
      <g
         id="g45">
        <path
           d="m 1.515625,-1.71875 c 0,0.273438 0.050781,0.464844 0.15625,0.578125 0.113281,0.105469 0.265625,0.15625 0.453125,0.15625 0.1875,0 0.332031,-0.050781 0.4375,-0.15625 0.113281,-0.113281 0.171875,-0.304687 0.171875,-0.578125 v -4.0625 c 0,-0.269531 -0.058594,-0.457031 -0.171875,-0.5625 -0.105469,-0.113281 -0.25,-0.171875 -0.4375,-0.171875 -0.1875,0 -0.339844,0.058594 -0.453125,0.171875 -0.105469,0.105469 -0.15625,0.292969 -0.15625,0.5625 z m -1.1875,-3.984375 c 0,-0.601563 0.148437,-1.066406 0.453125,-1.390625 0.3125,-0.332031 0.757812,-0.5 1.34375,-0.5 0.570312,0 1.007812,0.167969 1.3125,0.5 0.3125,0.324219 0.46875,0.789062 0.46875,1.390625 v 3.90625 C 3.90625,-1.191406 3.75,-0.726562 3.4375,-0.40625 3.132812,-0.0820312 2.695312,0.078125 2.125,0.078125 1.539062,0.078125 1.09375,-0.0820312 0.78125,-0.40625 0.476562,-0.726562 0.328125,-1.191406 0.328125,-1.796875 Z m 0,0"
           id="path44" />
      </g>
    </g>
  </g>
  <g
     fill="#a44f30"
     fill-opacity="1"
     id="g50"
     transform="translate(-79.792969,-157.39453)">
    <g
       transform="translate(148.02887,219.86335)"
       id="g49">
      <g
         id="g48">
        <path
           d="M 1.609375,-4.171875 H 3.125 V -3.09375 H 1.609375 V 0 h -1.1875 v -7.5 h 3.125 v 1.0625 h -1.9375 z m 0,0"
           id="path47" />
      </g>
    </g>
  </g>
  <g
     fill="#a44f30"
     fill-opacity="1"
     id="g53"
     transform="translate(-79.792969,-157.39453)">
    <g
       transform="translate(152.25245,219.86335)"
       id="g52">
      <g
         id="g51">
        <path
           d="M 0.109375,-7.5 H 3.75 v 1.0625 H 2.515625 V 0 H 1.34375 V -6.4375 H 0.109375 Z m 0,0"
           id="path50" />
      </g>
    </g>
  </g>
  <g
     fill="#a44f30"
     fill-opacity="1"
     id="g56"
     transform="translate(-79.792969,-157.39453)">
    <g
       transform="translate(156.64754,219.86335)"
       id="g55">
      <g
         id="g54">
        <path
           d="m 3.046875,-4 -0.4375,4 H 1 L 0.15625,-7.5 H 1.3125 L 1.9375,-1.59375 2.515625,-7.5 h 1.125 L 4.234375,-1.546875 4.84375,-7.5 H 5.875 L 5.03125,0 h -1.5625 z m 0,0"
           id="path53" />
      </g>
    </g>
  </g>
  <g
     fill="#a44f30"
     fill-opacity="1"
     id="g59"
     transform="translate(-79.792969,-157.39453)">
    <g
       transform="translate(163.2187,219.86335)"
       id="g58">
      <g
         id="g57">
        <path
           d="M 4.25,0 H 3.0625 L 2.84375,-1.359375 H 1.40625 L 1.203125,0 H 0.125 L 1.3125,-7.5 H 3.046875 Z M 1.546875,-2.375 H 2.6875 L 2.125,-6.171875 Z m 0,0"
           id="path56" />
      </g>
    </g>
  </g>
  <g
     fill="#a44f30"
     fill-opacity="1"
     id="g62"
     transform="translate(-79.792969,-157.39453)">
    <g
       transform="translate(168.11761,219.86335)"
       id="g61">
      <g
         id="g60">
        <path
           d="M 2.890625,0 C 2.878906,-0.0507812 2.863281,-0.0976562 2.84375,-0.140625 2.832031,-0.179688 2.820312,-0.234375 2.8125,-0.296875 c -0.011719,-0.0625 -0.023438,-0.144531 -0.03125,-0.25 0,-0.101563 0,-0.226563 0,-0.375 V -2.09375 c 0,-0.351562 -0.0625,-0.601562 -0.1875,-0.75 C 2.476562,-2.988281 2.285156,-3.0625 2.015625,-3.0625 H 1.609375 V 0 h -1.1875 v -7.5 h 1.78125 c 0.613281,0 1.054687,0.148438 1.328125,0.4375 0.28125,0.28125 0.421875,0.710938 0.421875,1.28125 v 0.59375 c 0,0.773438 -0.257813,1.277344 -0.765625,1.515625 0.300781,0.125 0.503906,0.328125 0.609375,0.609375 0.113281,0.273438 0.171875,0.605469 0.171875,1 v 1.15625 c 0,0.1875 0.00391,0.351562 0.015625,0.484375 C 4.003906,-0.285156 4.039062,-0.144531 4.09375,0 Z M 1.609375,-6.4375 V -4.125 H 2.0625 c 0.226562,0 0.40625,-0.054688 0.53125,-0.171875 0.125,-0.113281 0.1875,-0.320313 0.1875,-0.625 V -5.65625 C 2.78125,-5.925781 2.726562,-6.125 2.625,-6.25 2.53125,-6.375 2.378906,-6.4375 2.171875,-6.4375 Z m 0,0"
           id="path59" />
      </g>
    </g>
  </g>
  <g
     fill="#a44f30"
     fill-opacity="1"
     id="g65"
     transform="translate(-79.792969,-157.39453)">
    <g
       transform="translate(172.96293,219.86335)"
       id="g64">
      <g
         id="g63">
        <path
           d="M 1.609375,-4.34375 H 3.21875 v 1.078125 H 1.609375 v 2.1875 h 2.03125 V 0 h -3.21875 v -7.5 h 3.21875 v 1.0625 h -2.03125 z m 0,0"
           id="path62" />
      </g>
    </g>
  </g>
  <g
     fill="#a44f30"
     fill-opacity="1"
     id="g68"
     transform="translate(-79.792969,-157.39453)">
    <g
       transform="translate(177.44378,219.86335)"
       id="g67">
      <g
         id="g66" />
    </g>
  </g>
  <g
     fill="#a44f30"
     fill-opacity="1"
     id="g71"
     transform="translate(-79.792969,-157.39453)">
    <g
       transform="translate(179.64137,219.86335)"
       id="g70">
      <g
         id="g69">
        <path
           d="M 4.25,0 H 3.0625 L 2.84375,-1.359375 H 1.40625 L 1.203125,0 H 0.125 L 1.3125,-7.5 H 3.046875 Z M 1.546875,-2.375 H 2.6875 L 2.125,-6.171875 Z m 0,0"
           id="path68" />
      </g>
    </g>
  </g>
  <g
     fill="#a44f30"
     fill-opacity="1"
     id="g74"
     transform="translate(-79.792969,-157.39453)">
    <g
       transform="translate(184.54029,219.86335)"
       id="g73">
      <g
         id="g72">
        <path
           d="M 1.484375,-5.4375 V 0 h -1.0625 v -7.5 h 1.46875 l 1.21875,4.484375 V -7.5 H 4.15625 V 0 H 2.953125 Z m 0,0"
           id="path71" />
      </g>
    </g>
  </g>
  <g
     fill="#a44f30"
     fill-opacity="1"
     id="g77"
     transform="translate(-79.792969,-157.39453)">
    <g
       transform="translate(189.65359,219.86335)"
       id="g76">
      <g
         id="g75">
        <path
           d="m 0.421875,-7.5 h 1.875 c 0.59375,0 1.03125,0.15625 1.3125,0.46875 0.289063,0.3125 0.4375,0.773438 0.4375,1.375 v 3.796875 c 0,0.617187 -0.148437,1.078125 -0.4375,1.390625 C 3.328125,-0.15625 2.890625,0 2.296875,0 h -1.875 z m 1.1875,1.0625 v 5.359375 h 0.65625 c 0.1875,0 0.332031,-0.050781 0.4375,-0.15625 C 2.816406,-1.335938 2.875,-1.523438 2.875,-1.796875 v -3.90625 c 0,-0.269531 -0.058594,-0.457031 -0.171875,-0.5625 -0.105469,-0.113281 -0.25,-0.171875 -0.4375,-0.171875 z m 0,0"
           id="path74" />
      </g>
    </g>
  </g>
  <g
     fill="#a44f30"
     fill-opacity="1"
     id="g80"
     transform="translate(-79.792969,-157.39453)">
    <g
       transform="translate(194.56322,219.86335)"
       id="g79">
      <g
         id="g78" />
    </g>
  </g>
  <g
     fill="#a44f30"
     fill-opacity="1"
     id="g83"
     transform="translate(-79.792969,-157.39453)">
    <g
       transform="translate(196.76082,219.86335)"
       id="g82">
      <g
         id="g81">
        <path
           d="m 1.609375,0 h -1.1875 v -7.5 h 1.1875 v 3.21875 h 1.34375 V -7.5 h 1.1875 V 0 h -1.1875 v -3.21875 h -1.34375 z m 0,0"
           id="path80" />
      </g>
    </g>
  </g>
  <g
     fill="#a44f30"
     fill-opacity="1"
     id="g86"
     transform="translate(-79.792969,-157.39453)">
    <g
       transform="translate(201.87412,219.86335)"
       id="g85">
      <g
         id="g84">
        <path
           d="M 4.25,0 H 3.0625 L 2.84375,-1.359375 H 1.40625 L 1.203125,0 H 0.125 L 1.3125,-7.5 H 3.046875 Z M 1.546875,-2.375 H 2.6875 L 2.125,-6.171875 Z m 0,0"
           id="path83" />
      </g>
    </g>
  </g>
  <g
     fill="#a44f30"
     fill-opacity="1"
     id="g89"
     transform="translate(-79.792969,-157.39453)">
    <g
       transform="translate(206.77303,219.86335)"
       id="g88">
      <g
         id="g87">
        <path
           d="M 2.890625,0 C 2.878906,-0.0507812 2.863281,-0.0976562 2.84375,-0.140625 2.832031,-0.179688 2.820312,-0.234375 2.8125,-0.296875 c -0.011719,-0.0625 -0.023438,-0.144531 -0.03125,-0.25 0,-0.101563 0,-0.226563 0,-0.375 V -2.09375 c 0,-0.351562 -0.0625,-0.601562 -0.1875,-0.75 C 2.476562,-2.988281 2.285156,-3.0625 2.015625,-3.0625 H 1.609375 V 0 h -1.1875 v -7.5 h 1.78125 c 0.613281,0 1.054687,0.148438 1.328125,0.4375 0.28125,0.28125 0.421875,0.710938 0.421875,1.28125 v 0.59375 c 0,0.773438 -0.257813,1.277344 -0.765625,1.515625 0.300781,0.125 0.503906,0.328125 0.609375,0.609375 0.113281,0.273438 0.171875,0.605469 0.171875,1 v 1.15625 c 0,0.1875 0.00391,0.351562 0.015625,0.484375 C 4.003906,-0.285156 4.039062,-0.144531 4.09375,0 Z M 1.609375,-6.4375 V -4.125 H 2.0625 c 0.226562,0 0.40625,-0.054688 0.53125,-0.171875 0.125,-0.113281 0.1875,-0.320313 0.1875,-0.625 V -5.65625 C 2.78125,-5.925781 2.726562,-6.125 2.625,-6.25 2.53125,-6.375 2.378906,-6.4375 2.171875,-6.4375 Z m 0,0"
           id="path86" />
      </g>
    </g>
  </g>
  <g
     fill="#a44f30"
     fill-opacity="1"
     id="g92"
     transform="translate(-79.792969,-157.39453)">
    <g
       transform="translate(211.61834,219.86335)"
       id="g91">
      <g
         id="g90">
        <path
           d="m 0.421875,-7.5 h 1.875 c 0.59375,0 1.03125,0.15625 1.3125,0.46875 0.289063,0.3125 0.4375,0.773438 0.4375,1.375 v 3.796875 c 0,0.617187 -0.148437,1.078125 -0.4375,1.390625 C 3.328125,-0.15625 2.890625,0 2.296875,0 h -1.875 z m 1.1875,1.0625 v 5.359375 h 0.65625 c 0.1875,0 0.332031,-0.050781 0.4375,-0.15625 C 2.816406,-1.335938 2.875,-1.523438 2.875,-1.796875 v -3.90625 c 0,-0.269531 -0.058594,-0.457031 -0.171875,-0.5625 -0.105469,-0.113281 -0.25,-0.171875 -0.4375,-0.171875 z m 0,0"
           id="path89" />
      </g>
    </g>
  </g>
  <g
     fill="#a44f30"
     fill-opacity="1"
     id="g95"
     transform="translate(-79.792969,-157.39453)">
    <g
       transform="translate(216.52797,219.86335)"
       id="g94">
      <g
         id="g93">
        <path
           d="m 3.046875,-4 -0.4375,4 H 1 L 0.15625,-7.5 H 1.3125 L 1.9375,-1.59375 2.515625,-7.5 h 1.125 L 4.234375,-1.546875 4.84375,-7.5 H 5.875 L 5.03125,0 h -1.5625 z m 0,0"
           id="path92" />
      </g>
    </g>
  </g>
  <g
     fill="#a44f30"
     fill-opacity="1"
     id="g98"
     transform="translate(-79.792969,-157.39453)">
    <g
       transform="translate(223.09912,219.86335)"
       id="g97">
      <g
         id="g96">
        <path
           d="M 4.25,0 H 3.0625 L 2.84375,-1.359375 H 1.40625 L 1.203125,0 H 0.125 L 1.3125,-7.5 H 3.046875 Z M 1.546875,-2.375 H 2.6875 L 2.125,-6.171875 Z m 0,0"
           id="path95" />
      </g>
    </g>
  </g>
  <g
     fill="#a44f30"
     fill-opacity="1"
     id="g101"
     transform="translate(-79.792969,-157.39453)">
    <g
       transform="translate(227.99803,219.86335)"
       id="g100">
      <g
         id="g99">
        <path
           d="M 2.890625,0 C 2.878906,-0.0507812 2.863281,-0.0976562 2.84375,-0.140625 2.832031,-0.179688 2.820312,-0.234375 2.8125,-0.296875 c -0.011719,-0.0625 -0.023438,-0.144531 -0.03125,-0.25 0,-0.101563 0,-0.226563 0,-0.375 V -2.09375 c 0,-0.351562 -0.0625,-0.601562 -0.1875,-0.75 C 2.476562,-2.988281 2.285156,-3.0625 2.015625,-3.0625 H 1.609375 V 0 h -1.1875 v -7.5 h 1.78125 c 0.613281,0 1.054687,0.148438 1.328125,0.4375 0.28125,0.28125 0.421875,0.710938 0.421875,1.28125 v 0.59375 c 0,0.773438 -0.257813,1.277344 -0.765625,1.515625 0.300781,0.125 0.503906,0.328125 0.609375,0.609375 0.113281,0.273438 0.171875,0.605469 0.171875,1 v 1.15625 c 0,0.1875 0.00391,0.351562 0.015625,0.484375 C 4.003906,-0.285156 4.039062,-0.144531 4.09375,0 Z M 1.609375,-6.4375 V -4.125 H 2.0625 c 0.226562,0 0.40625,-0.054688 0.53125,-0.171875 0.125,-0.113281 0.1875,-0.320313 0.1875,-0.625 V -5.65625 C 2.78125,-5.925781 2.726562,-6.125 2.625,-6.25 2.53125,-6.375 2.378906,-6.4375 2.171875,-6.4375 Z m 0,0"
           id="path98" />
      </g>
    </g>
  </g>
  <g
     fill="#a44f30"
     fill-opacity="1"
     id="g104"
     transform="translate(-79.792969,-157.39453)">
    <g
       transform="translate(232.84334,219.86335)"
       id="g103">
      <g
         id="g102">
        <path
           d="M 1.609375,-4.34375 H 3.21875 v 1.078125 H 1.609375 v 2.1875 h 2.03125 V 0 h -3.21875 v -7.5 h 3.21875 v 1.0625 h -2.03125 z m 0,0"
           id="path101" />
      </g>
    </g>
  </g>
  <g
     fill="#a44f30"
     fill-opacity="1"
     id="g107"
     transform="translate(-79.792969,-157.39453)">
    <g
       transform="translate(237.3242,219.86335)"
       id="g106">
      <g
         id="g105" />
    </g>
  </g>
  <g
     fill="#a44f30"
     fill-opacity="1"
     id="g110"
     transform="translate(-79.792969,-157.39453)">
    <g
       transform="translate(239.52179,219.86335)"
       id="g109">
      <g
         id="g108">
        <path
           d="M 1.609375,-4.34375 H 3.21875 v 1.078125 H 1.609375 v 2.1875 h 2.03125 V 0 h -3.21875 v -7.5 h 3.21875 v 1.0625 h -2.03125 z m 0,0"
           id="path107" />
      </g>
    </g>
  </g>
  <g
     fill="#a44f30"
     fill-opacity="1"
     id="g113"
     transform="translate(-79.792969,-157.39453)">
    <g
       transform="translate(244.00264,219.86335)"
       id="g112">
      <g
         id="g111">
        <path
           d="M 1.484375,-5.4375 V 0 h -1.0625 v -7.5 h 1.46875 l 1.21875,4.484375 V -7.5 H 4.15625 V 0 H 2.953125 Z m 0,0"
           id="path110" />
      </g>
    </g>
  </g>
  <g
     fill="#a44f30"
     fill-opacity="1"
     id="g116"
     transform="translate(-79.792969,-157.39453)">
    <g
       transform="translate(249.11594,219.86335)"
       id="g115">
      <g
         id="g114">
        <path
           d="M 2.203125,-4.1875 H 3.84375 v 2.390625 c 0,0.605469 -0.152344,1.070313 -0.453125,1.390625 -0.292969,0.3242188 -0.726563,0.484375 -1.296875,0.484375 -0.585938,0 -1.027344,-0.1601562 -1.328125,-0.484375 -0.292969,-0.320312 -0.4375,-0.785156 -0.4375,-1.390625 v -3.90625 c 0,-0.601563 0.144531,-1.066406 0.4375,-1.390625 0.300781,-0.332031 0.742187,-0.5 1.328125,-0.5 0.570312,0 1.003906,0.167969 1.296875,0.5 0.300781,0.324219 0.453125,0.789062 0.453125,1.390625 V -4.96875 H 2.734375 v -0.8125 c 0,-0.269531 -0.058594,-0.457031 -0.171875,-0.5625 -0.105469,-0.113281 -0.25,-0.171875 -0.4375,-0.171875 -0.1875,0 -0.339844,0.058594 -0.453125,0.171875 -0.105469,0.105469 -0.15625,0.292969 -0.15625,0.5625 v 4.0625 c 0,0.273438 0.050781,0.460938 0.15625,0.5625 C 1.785156,-1.050781 1.9375,-1 2.125,-1 c 0.1875,0 0.332031,-0.050781 0.4375,-0.15625 0.113281,-0.101562 0.171875,-0.289062 0.171875,-0.5625 v -1.390625 h -0.53125 z m 0,0"
           id="path113" />
      </g>
    </g>
  </g>
  <g
     fill="#a44f30"
     fill-opacity="1"
     id="g119"
     transform="translate(-79.792969,-157.39453)">
    <g
       transform="translate(253.83262,219.86335)"
       id="g118">
      <g
         id="g117">
        <path
           d="m 0.421875,-7.5 h 1.1875 V 0 h -1.1875 z m 0,0"
           id="path116" />
      </g>
    </g>
  </g>
  <g
     fill="#a44f30"
     fill-opacity="1"
     id="g122"
     transform="translate(-79.792969,-157.39453)">
    <g
       transform="translate(256.4054,219.86335)"
       id="g121">
      <g
         id="g120">
        <path
           d="M 1.484375,-5.4375 V 0 h -1.0625 v -7.5 h 1.46875 l 1.21875,4.484375 V -7.5 H 4.15625 V 0 H 2.953125 Z m 0,0"
           id="path119" />
      </g>
    </g>
  </g>
  <g
     fill="#a44f30"
     fill-opacity="1"
     id="g125"
     transform="translate(-79.792969,-157.39453)">
    <g
       transform="translate(261.5187,219.86335)"
       id="g124">
      <g
         id="g123">
        <path
           d="M 1.609375,-4.34375 H 3.21875 v 1.078125 H 1.609375 v 2.1875 h 2.03125 V 0 h -3.21875 v -7.5 h 3.21875 v 1.0625 h -2.03125 z m 0,0"
           id="path122" />
      </g>
    </g>
  </g>
  <g
     fill="#a44f30"
     fill-opacity="1"
     id="g128"
     transform="translate(-79.792969,-157.39453)">
    <g
       transform="translate(265.99955,219.86335)"
       id="g127">
      <g
         id="g126">
        <path
           d="M 1.609375,-4.34375 H 3.21875 v 1.078125 H 1.609375 v 2.1875 h 2.03125 V 0 h -3.21875 v -7.5 h 3.21875 v 1.0625 h -2.03125 z m 0,0"
           id="path125" />
      </g>
    </g>
  </g>
  <g
     fill="#a44f30"
     fill-opacity="1"
     id="g131"
     transform="translate(-79.792969,-157.39453)">
    <g
       transform="translate(270.4804,219.86335)"
       id="g130">
      <g
         id="g129">
        <path
           d="M 2.890625,0 C 2.878906,-0.0507812 2.863281,-0.0976562 2.84375,-0.140625 2.832031,-0.179688 2.820312,-0.234375 2.8125,-0.296875 c -0.011719,-0.0625 -0.023438,-0.144531 -0.03125,-0.25 0,-0.101563 0,-0.226563 0,-0.375 V -2.09375 c 0,-0.351562 -0.0625,-0.601562 -0.1875,-0.75 C 2.476562,-2.988281 2.285156,-3.0625 2.015625,-3.0625 H 1.609375 V 0 h -1.1875 v -7.5 h 1.78125 c 0.613281,0 1.054687,0.148438 1.328125,0.4375 0.28125,0.28125 0.421875,0.710938 0.421875,1.28125 v 0.59375 c 0,0.773438 -0.257813,1.277344 -0.765625,1.515625 0.300781,0.125 0.503906,0.328125 0.609375,0.609375 0.113281,0.273438 0.171875,0.605469 0.171875,1 v 1.15625 c 0,0.1875 0.00391,0.351562 0.015625,0.484375 C 4.003906,-0.285156 4.039062,-0.144531 4.09375,0 Z M 1.609375,-6.4375 V -4.125 H 2.0625 c 0.226562,0 0.40625,-0.054688 0.53125,-0.171875 0.125,-0.113281 0.1875,-0.320313 0.1875,-0.625 V -5.65625 C 2.78125,-5.925781 2.726562,-6.125 2.625,-6.25 2.53125,-6.375 2.378906,-6.4375 2.171875,-6.4375 Z m 0,0"
           id="path128" />
      </g>
    </g>
  </g>
  <g
     fill="#a44f30"
     fill-opacity="1"
     id="g134"
     transform="translate(-79.792969,-157.39453)">
    <g
       transform="translate(275.32572,219.86335)"
       id="g133">
      <g
         id="g132">
        <path
           d="m 0.421875,-7.5 h 1.1875 V 0 h -1.1875 z m 0,0"
           id="path131" />
      </g>
    </g>
  </g>
  <g
     fill="#a44f30"
     fill-opacity="1"
     id="g137"
     transform="translate(-79.792969,-157.39453)">
    <g
       transform="translate(277.8985,219.86335)"
       id="g136">
      <g
         id="g135">
        <path
           d="M 1.484375,-5.4375 V 0 h -1.0625 v -7.5 h 1.46875 l 1.21875,4.484375 V -7.5 H 4.15625 V 0 H 2.953125 Z m 0,0"
           id="path134" />
      </g>
    </g>
  </g>
  <g
     fill="#a44f30"
     fill-opacity="1"
     id="g140"
     transform="translate(-79.792969,-157.39453)">
    <g
       transform="translate(283.0118,219.86335)"
       id="g139">
      <g
         id="g138">
        <path
           d="M 2.203125,-4.1875 H 3.84375 v 2.390625 c 0,0.605469 -0.152344,1.070313 -0.453125,1.390625 -0.292969,0.3242188 -0.726563,0.484375 -1.296875,0.484375 -0.585938,0 -1.027344,-0.1601562 -1.328125,-0.484375 -0.292969,-0.320312 -0.4375,-0.785156 -0.4375,-1.390625 v -3.90625 c 0,-0.601563 0.144531,-1.066406 0.4375,-1.390625 0.300781,-0.332031 0.742187,-0.5 1.328125,-0.5 0.570312,0 1.003906,0.167969 1.296875,0.5 0.300781,0.324219 0.453125,0.789062 0.453125,1.390625 V -4.96875 H 2.734375 v -0.8125 c 0,-0.269531 -0.058594,-0.457031 -0.171875,-0.5625 -0.105469,-0.113281 -0.25,-0.171875 -0.4375,-0.171875 -0.1875,0 -0.339844,0.058594 -0.453125,0.171875 -0.105469,0.105469 -0.15625,0.292969 -0.15625,0.5625 v 4.0625 c 0,0.273438 0.050781,0.460938 0.15625,0.5625 C 1.785156,-1.050781 1.9375,-1 2.125,-1 c 0.1875,0 0.332031,-0.050781 0.4375,-0.15625 0.113281,-0.101562 0.171875,-0.289062 0.171875,-0.5625 v -1.390625 h -0.53125 z m 0,0"
           id="path137" />
      </g>
    </g>
  </g>
</svg>
