<svg xmlns="http://www.w3.org/2000/svg" xmlns:xlink="http://www.w3.org/1999/xlink" width="500" zoomAndPan="magnify" viewBox="0 0 375 374.999991" height="500" preserveAspectRatio="xMidYMid meet" version="1.0"><defs><g/><clipPath id="9c89f88bbb"><path d="M 37.5 149 L 114.75 149 L 114.75 222.472656 L 37.5 222.472656 Z M 37.5 149 " clip-rule="nonzero"/></clipPath><clipPath id="1ca745df1a"><path d="M 37.5 131.722656 L 114.75 131.722656 L 114.75 192 L 37.5 192 Z M 37.5 131.722656 " clip-rule="nonzero"/></clipPath></defs><path fill="#9c3636" d="M 90.328125 145.144531 L 104.894531 155.285156 L 112.464844 160.554688 C 112.617188 160.65625 112.78125 160.738281 112.945312 160.769531 L 110.144531 158.816406 L 90.824219 145.359375 C 90.660156 145.246094 90.496094 145.179688 90.328125 145.128906 Z M 90.328125 145.144531 " fill-opacity="1" fill-rule="evenodd"/><g clip-path="url(#9c89f88bbb)"><path fill="#a44f30" d="M 47.378906 189.652344 L 47.378906 185.113281 C 47.378906 184.546875 47.660156 184.085938 48.160156 183.820312 C 48.65625 183.570312 49.203125 183.605469 49.667969 183.917969 L 74.933594 201.53125 C 75.449219 201.882812 76.09375 201.882812 76.59375 201.53125 L 83.070312 197.027344 C 83.46875 196.746094 83.699219 196.328125 83.699219 195.832031 C 83.699219 195.335938 83.484375 194.921875 83.070312 194.640625 L 47.378906 169.769531 L 39.808594 164.5 C 39.359375 164.183594 38.796875 164.152344 38.300781 164.398438 C 37.800781 164.648438 37.519531 165.128906 37.519531 165.691406 L 37.519531 194.804688 C 37.519531 195.300781 37.734375 195.71875 38.148438 196 L 75.316406 221.898438 C 75.832031 222.246094 76.476562 222.246094 76.972656 221.898438 L 114.140625 196 C 114.539062 195.71875 114.769531 195.300781 114.769531 194.804688 L 114.769531 173.378906 C 114.769531 172.898438 114.554688 172.46875 114.140625 172.1875 L 104.910156 165.757812 L 82.390625 150.066406 C 82.144531 149.882812 81.878906 149.800781 81.5625 149.800781 L 68.605469 149.800781 C 67.960938 149.800781 67.414062 150.199219 67.214844 150.8125 C 67.015625 151.425781 67.246094 152.070312 67.777344 152.4375 L 104.296875 177.871094 C 104.695312 178.152344 104.910156 178.582031 104.910156 179.0625 C 104.910156 182.230469 104.910156 185.394531 104.910156 188.558594 C 104.910156 189.800781 104.894531 190.050781 104.28125 190.546875 C 104.015625 190.761719 103.667969 191.027344 103.253906 191.34375 C 97.519531 195.683594 78.8125 208.574219 76.972656 209.867188 C 76.460938 210.214844 75.8125 210.214844 75.316406 209.867188 L 48.007812 190.828125 C 47.613281 190.546875 47.378906 190.132812 47.378906 189.636719 Z M 47.378906 189.652344 " fill-opacity="1" fill-rule="nonzero"/></g><g clip-path="url(#1ca745df1a)"><path fill="#e0b15e" d="M 91.820312 190.910156 L 98.847656 186.023438 C 99.144531 185.808594 99.308594 185.492188 99.308594 185.128906 C 99.308594 184.765625 99.144531 184.433594 98.847656 184.234375 L 47.992188 148.757812 C 47.59375 148.476562 47.363281 148.0625 47.363281 147.566406 L 47.363281 143.023438 C 47.363281 142.230469 48.007812 141.566406 48.820312 141.566406 L 84.746094 141.566406 C 85.058594 141.566406 85.324219 141.648438 85.574219 141.832031 L 104.894531 155.285156 L 112.464844 160.554688 C 112.929688 160.871094 113.476562 160.902344 113.972656 160.65625 C 114.472656 160.390625 114.753906 159.925781 114.753906 159.363281 L 114.753906 133.164062 C 114.753906 132.371094 114.105469 131.707031 113.292969 131.707031 L 38.960938 131.707031 C 38.167969 131.707031 37.503906 132.355469 37.503906 133.164062 L 37.503906 153.25 C 37.503906 153.746094 37.71875 154.160156 38.132812 154.441406 L 47.363281 160.871094 L 90.5625 190.894531 C 90.941406 191.160156 91.421875 191.160156 91.820312 190.894531 Z M 91.820312 190.910156 " fill-opacity="1" fill-rule="nonzero"/></g><g fill="#a44f30" fill-opacity="1"><g transform="translate(120.208612, 163.669528)"><g><path d="M 10.546875 -6.125 L 21.28125 -6.125 L 21.28125 0 L 1.96875 0 L 1.96875 -31.484375 L 20.84375 -31.484375 L 20.84375 -25.34375 L 10.546875 -25.34375 L 10.546875 -18.921875 L 19.421875 -18.921875 L 19.421875 -12.796875 L 10.546875 -12.796875 Z M 10.546875 -6.125 "/></g></g></g><g fill="#a44f30" fill-opacity="1"><g transform="translate(149.086999, 163.669528)"><g><path d="M 9.609375 0 L 1.96875 0 L 1.96875 -31.484375 L 11.328125 -31.484375 L 16.421875 -14.65625 L 21.53125 -31.484375 L 30.890625 -31.484375 L 30.890625 0 L 23.296875 0 L 23.296875 -20 L 19.375 -6.8125 L 13.484375 -6.8125 L 9.609375 -19.90625 Z M 9.609375 0 "/></g></g></g><g fill="#a44f30" fill-opacity="1"><g transform="translate(188.799996, 163.669528)"><g><path d="M 15.15625 -19.65625 L 15.15625 -24.765625 C 15.15625 -25.484375 14.742188 -25.84375 13.921875 -25.84375 L 10.390625 -25.84375 L 10.390625 -18.578125 L 13.921875 -18.578125 C 14.742188 -18.578125 15.15625 -18.9375 15.15625 -19.65625 Z M 15.15625 -6.71875 L 15.15625 -11.859375 C 15.15625 -12.578125 14.742188 -12.9375 13.921875 -12.9375 L 10.390625 -12.9375 L 10.390625 -5.640625 L 13.921875 -5.640625 C 14.742188 -5.640625 15.15625 -6 15.15625 -6.71875 Z M 1.96875 -31.484375 L 16.375 -31.484375 C 21.175781 -31.484375 23.578125 -29.453125 23.578125 -25.390625 L 23.578125 -21.375 C 23.578125 -18.53125 22.796875 -16.6875 21.234375 -15.84375 C 22.148438 -15.445312 22.769531 -14.847656 23.09375 -14.046875 C 23.414062 -13.242188 23.578125 -12.15625 23.578125 -10.78125 L 23.578125 -6.078125 C 23.578125 -2.023438 21.175781 0 16.375 0 L 1.96875 0 Z M 1.96875 -31.484375 "/></g></g></g><g fill="#a44f30" fill-opacity="1"><g transform="translate(220.963077, 163.669528)"><g><path d="M 10.546875 -6.125 L 21.28125 -6.125 L 21.28125 0 L 1.96875 0 L 1.96875 -31.484375 L 20.84375 -31.484375 L 20.84375 -25.34375 L 10.546875 -25.34375 L 10.546875 -18.921875 L 19.421875 -18.921875 L 19.421875 -12.796875 L 10.546875 -12.796875 Z M 10.546875 -6.125 "/></g></g></g><g fill="#a44f30" fill-opacity="1"><g transform="translate(249.841467, 163.669528)"><g><path d="M 2.453125 -31.484375 L 16.921875 -31.484375 C 21.722656 -31.484375 24.125 -29.453125 24.125 -25.390625 L 24.125 -6.078125 C 24.125 -2.023438 21.722656 0 16.921875 0 L 2.453125 0 Z M 15.546875 -6.71875 L 15.546875 -24.765625 C 15.546875 -25.484375 15.132812 -25.84375 14.3125 -25.84375 L 11.03125 -25.84375 L 11.03125 -5.640625 L 14.3125 -5.640625 C 15.132812 -5.640625 15.546875 -6 15.546875 -6.71875 Z M 15.546875 -6.71875 "/></g></g></g><g fill="#e0b15e" fill-opacity="1"><g transform="translate(120.208612, 202.552852)"><g><path d="M 14.015625 -7.203125 L 14.015625 -11.671875 C 14.015625 -12.390625 13.609375 -12.75 12.796875 -12.75 L 8.09375 -12.75 C 5.675781 -12.75 3.96875 -13.28125 2.96875 -14.34375 C 1.96875 -15.40625 1.46875 -16.929688 1.46875 -18.921875 L 1.46875 -25.390625 C 1.46875 -29.453125 3.851562 -31.484375 8.625 -31.484375 L 15.34375 -31.484375 C 20.113281 -31.484375 22.5 -29.453125 22.5 -25.390625 L 22.5 -21.625 L 13.921875 -21.625 L 13.921875 -24.265625 C 13.921875 -24.984375 13.515625 -25.34375 12.703125 -25.34375 L 11.28125 -25.34375 C 10.457031 -25.34375 10.046875 -24.984375 10.046875 -24.265625 L 10.046875 -19.609375 C 10.046875 -18.890625 10.457031 -18.53125 11.28125 -18.53125 L 15.890625 -18.53125 C 18.304688 -18.53125 20.03125 -18.023438 21.0625 -17.015625 C 22.09375 -16.003906 22.609375 -14.515625 22.609375 -12.546875 L 22.609375 -6.078125 C 22.609375 -2.023438 20.21875 0 15.4375 0 L 8.78125 0 C 3.96875 0 1.5625 -2.023438 1.5625 -6.078125 L 1.5625 -9.859375 L 10.15625 -9.859375 L 10.15625 -7.203125 C 10.15625 -6.484375 10.5625 -6.125 11.375 -6.125 L 12.796875 -6.125 C 13.609375 -6.125 14.015625 -6.484375 14.015625 -7.203125 Z M 14.015625 -7.203125 "/></g></g></g><g fill="#e0b15e" fill-opacity="1"><g transform="translate(151.146064, 202.552852)"><g><path d="M 17.265625 0 L 8.671875 0 L 8.671875 -10.203125 L 0 -31.484375 L 8.78125 -31.484375 L 12.890625 -18.1875 L 16.71875 -31.484375 L 25.453125 -31.484375 L 17.265625 -10.296875 Z M 17.265625 0 "/></g></g></g><g fill="#e0b15e" fill-opacity="1"><g transform="translate(183.45622, 202.552852)"><g><path d="M 14.015625 -7.203125 L 14.015625 -11.671875 C 14.015625 -12.390625 13.609375 -12.75 12.796875 -12.75 L 8.09375 -12.75 C 5.675781 -12.75 3.96875 -13.28125 2.96875 -14.34375 C 1.96875 -15.40625 1.46875 -16.929688 1.46875 -18.921875 L 1.46875 -25.390625 C 1.46875 -29.453125 3.851562 -31.484375 8.625 -31.484375 L 15.34375 -31.484375 C 20.113281 -31.484375 22.5 -29.453125 22.5 -25.390625 L 22.5 -21.625 L 13.921875 -21.625 L 13.921875 -24.265625 C 13.921875 -24.984375 13.515625 -25.34375 12.703125 -25.34375 L 11.28125 -25.34375 C 10.457031 -25.34375 10.046875 -24.984375 10.046875 -24.265625 L 10.046875 -19.609375 C 10.046875 -18.890625 10.457031 -18.53125 11.28125 -18.53125 L 15.890625 -18.53125 C 18.304688 -18.53125 20.03125 -18.023438 21.0625 -17.015625 C 22.09375 -16.003906 22.609375 -14.515625 22.609375 -12.546875 L 22.609375 -6.078125 C 22.609375 -2.023438 20.21875 0 15.4375 0 L 8.78125 0 C 3.96875 0 1.5625 -2.023438 1.5625 -6.078125 L 1.5625 -9.859375 L 10.15625 -9.859375 L 10.15625 -7.203125 C 10.15625 -6.484375 10.5625 -6.125 11.375 -6.125 L 12.796875 -6.125 C 13.609375 -6.125 14.015625 -6.484375 14.015625 -7.203125 Z M 14.015625 -7.203125 "/></g></g></g><g fill="#e0b15e" fill-opacity="1"><g transform="translate(214.393668, 202.552852)"><g><path d="M 20.9375 -31.484375 L 20.9375 -25.34375 L 14.859375 -25.34375 L 14.859375 0 L 6.28125 0 L 6.28125 -25.34375 L 0.25 -25.34375 L 0.25 -31.484375 Z M 20.9375 -31.484375 "/></g></g></g><g fill="#e0b15e" fill-opacity="1"><g transform="translate(242.438628, 202.552852)"><g><path d="M 10.546875 -6.125 L 21.28125 -6.125 L 21.28125 0 L 1.96875 0 L 1.96875 -31.484375 L 20.84375 -31.484375 L 20.84375 -25.34375 L 10.546875 -25.34375 L 10.546875 -18.921875 L 19.421875 -18.921875 L 19.421875 -12.796875 L 10.546875 -12.796875 Z M 10.546875 -6.125 "/></g></g></g><g fill="#e0b15e" fill-opacity="1"><g transform="translate(271.317019, 202.552852)"><g><path d="M 9.609375 0 L 1.96875 0 L 1.96875 -31.484375 L 11.328125 -31.484375 L 16.421875 -14.65625 L 21.53125 -31.484375 L 30.890625 -31.484375 L 30.890625 0 L 23.296875 0 L 23.296875 -20 L 19.375 -6.8125 L 13.484375 -6.8125 L 9.609375 -19.90625 Z M 9.609375 0 "/></g></g></g><g fill="#e0b15e" fill-opacity="1"><g transform="translate(311.030019, 202.552852)"><g><path d="M 14.015625 -7.203125 L 14.015625 -11.671875 C 14.015625 -12.390625 13.609375 -12.75 12.796875 -12.75 L 8.09375 -12.75 C 5.675781 -12.75 3.96875 -13.28125 2.96875 -14.34375 C 1.96875 -15.40625 1.46875 -16.929688 1.46875 -18.921875 L 1.46875 -25.390625 C 1.46875 -29.453125 3.851562 -31.484375 8.625 -31.484375 L 15.34375 -31.484375 C 20.113281 -31.484375 22.5 -29.453125 22.5 -25.390625 L 22.5 -21.625 L 13.921875 -21.625 L 13.921875 -24.265625 C 13.921875 -24.984375 13.515625 -25.34375 12.703125 -25.34375 L 11.28125 -25.34375 C 10.457031 -25.34375 10.046875 -24.984375 10.046875 -24.265625 L 10.046875 -19.609375 C 10.046875 -18.890625 10.457031 -18.53125 11.28125 -18.53125 L 15.890625 -18.53125 C 18.304688 -18.53125 20.03125 -18.023438 21.0625 -17.015625 C 22.09375 -16.003906 22.609375 -14.515625 22.609375 -12.546875 L 22.609375 -6.078125 C 22.609375 -2.023438 20.21875 0 15.4375 0 L 8.78125 0 C 3.96875 0 1.5625 -2.023438 1.5625 -6.078125 L 1.5625 -9.859375 L 10.15625 -9.859375 L 10.15625 -7.203125 C 10.15625 -6.484375 10.5625 -6.125 11.375 -6.125 L 12.796875 -6.125 C 13.609375 -6.125 14.015625 -6.484375 14.015625 -7.203125 Z M 14.015625 -7.203125 "/></g></g></g><g fill="#a44f30" fill-opacity="1"><g transform="translate(122.002277, 221.317719)"><g><path d="M 0.40625 -8.171875 C 0.40625 -9.046875 0.609375 -9.71875 1.015625 -10.1875 C 1.429688 -10.65625 2.054688 -10.890625 2.890625 -10.890625 C 3.722656 -10.890625 4.34375 -10.65625 4.75 -10.1875 C 5.164062 -9.71875 5.375 -9.046875 5.375 -8.171875 L 5.375 -7.765625 L 3.78125 -7.765625 L 3.78125 -8.28125 C 3.78125 -8.675781 3.707031 -8.953125 3.5625 -9.109375 C 3.414062 -9.265625 3.207031 -9.34375 2.9375 -9.34375 C 2.664062 -9.34375 2.457031 -9.265625 2.3125 -9.109375 C 2.164062 -8.953125 2.09375 -8.675781 2.09375 -8.28125 C 2.09375 -7.914062 2.171875 -7.59375 2.328125 -7.3125 C 2.492188 -7.03125 2.703125 -6.765625 2.953125 -6.515625 C 3.203125 -6.265625 3.46875 -6.007812 3.75 -5.75 C 4.03125 -5.5 4.289062 -5.222656 4.53125 -4.921875 C 4.78125 -4.628906 4.984375 -4.296875 5.140625 -3.921875 C 5.304688 -3.546875 5.390625 -3.097656 5.390625 -2.578125 C 5.390625 -1.710938 5.175781 -1.046875 4.75 -0.578125 C 4.332031 -0.109375 3.707031 0.125 2.875 0.125 C 2.039062 0.125 1.410156 -0.109375 0.984375 -0.578125 C 0.566406 -1.046875 0.359375 -1.710938 0.359375 -2.578125 L 0.359375 -3.328125 L 1.953125 -3.328125 L 1.953125 -2.46875 C 1.953125 -2.082031 2.03125 -1.8125 2.1875 -1.65625 C 2.34375 -1.507812 2.554688 -1.4375 2.828125 -1.4375 C 3.097656 -1.4375 3.3125 -1.507812 3.46875 -1.65625 C 3.625 -1.8125 3.703125 -2.082031 3.703125 -2.46875 C 3.703125 -2.84375 3.617188 -3.171875 3.453125 -3.453125 C 3.296875 -3.734375 3.09375 -4 2.84375 -4.25 C 2.59375 -4.5 2.328125 -4.75 2.046875 -5 C 1.765625 -5.25 1.5 -5.519531 1.25 -5.8125 C 1.007812 -6.113281 0.804688 -6.453125 0.640625 -6.828125 C 0.484375 -7.210938 0.40625 -7.660156 0.40625 -8.171875 Z M 0.40625 -8.171875 "/></g></g></g><g fill="#a44f30" fill-opacity="1"><g transform="translate(128.522351, 221.317719)"><g><path d="M 2.171875 -2.46875 C 2.171875 -2.082031 2.25 -1.8125 2.40625 -1.65625 C 2.5625 -1.5 2.773438 -1.421875 3.046875 -1.421875 C 3.304688 -1.421875 3.515625 -1.5 3.671875 -1.65625 C 3.835938 -1.8125 3.921875 -2.082031 3.921875 -2.46875 L 3.921875 -8.28125 C 3.921875 -8.675781 3.835938 -8.953125 3.671875 -9.109375 C 3.515625 -9.265625 3.304688 -9.34375 3.046875 -9.34375 C 2.773438 -9.34375 2.5625 -9.265625 2.40625 -9.109375 C 2.25 -8.953125 2.171875 -8.675781 2.171875 -8.28125 Z M 0.484375 -8.171875 C 0.484375 -9.046875 0.703125 -9.71875 1.140625 -10.1875 C 1.578125 -10.65625 2.210938 -10.890625 3.046875 -10.890625 C 3.878906 -10.890625 4.515625 -10.65625 4.953125 -10.1875 C 5.390625 -9.71875 5.609375 -9.046875 5.609375 -8.171875 L 5.609375 -2.578125 C 5.609375 -1.710938 5.390625 -1.046875 4.953125 -0.578125 C 4.515625 -0.109375 3.878906 0.125 3.046875 0.125 C 2.210938 0.125 1.578125 -0.109375 1.140625 -0.578125 C 0.703125 -1.046875 0.484375 -1.710938 0.484375 -2.578125 Z M 0.484375 -8.171875 "/></g></g></g><g fill="#a44f30" fill-opacity="1"><g transform="translate(135.380725, 221.317719)"><g><path d="M 2.3125 -5.984375 L 4.484375 -5.984375 L 4.484375 -4.4375 L 2.3125 -4.4375 L 2.3125 0 L 0.609375 0 L 0.609375 -10.765625 L 5.09375 -10.765625 L 5.09375 -9.21875 L 2.3125 -9.21875 Z M 2.3125 -5.984375 "/></g></g></g><g fill="#a44f30" fill-opacity="1"><g transform="translate(141.439481, 221.317719)"><g><path d="M 0.15625 -10.765625 L 5.375 -10.765625 L 5.375 -9.21875 L 3.609375 -9.21875 L 3.609375 0 L 1.921875 0 L 1.921875 -9.21875 L 0.15625 -9.21875 Z M 0.15625 -10.765625 "/></g></g></g><g fill="#a44f30" fill-opacity="1"><g transform="translate(147.744276, 221.317719)"><g><path d="M 4.359375 -5.734375 L 3.75 0 L 1.4375 0 L 0.234375 -10.765625 L 1.875 -10.765625 L 2.78125 -2.28125 L 3.59375 -10.765625 L 5.234375 -10.765625 L 6.078125 -2.21875 L 6.953125 -10.765625 L 8.421875 -10.765625 L 7.21875 0 L 4.984375 0 Z M 4.359375 -5.734375 "/></g></g></g><g fill="#a44f30" fill-opacity="1"><g transform="translate(157.170639, 221.317719)"><g><path d="M 6.09375 0 L 4.375 0 L 4.09375 -1.953125 L 2.015625 -1.953125 L 1.71875 0 L 0.171875 0 L 1.890625 -10.765625 L 4.359375 -10.765625 Z M 2.234375 -3.40625 L 3.859375 -3.40625 L 3.046875 -8.859375 Z M 2.234375 -3.40625 "/></g></g></g><g fill="#a44f30" fill-opacity="1"><g transform="translate(164.198163, 221.317719)"><g><path d="M 4.15625 0 C 4.132812 -0.0703125 4.113281 -0.140625 4.09375 -0.203125 C 4.070312 -0.265625 4.050781 -0.335938 4.03125 -0.421875 C 4.019531 -0.515625 4.007812 -0.632812 4 -0.78125 C 4 -0.925781 4 -1.109375 4 -1.328125 L 4 -3.015625 C 4 -3.515625 3.910156 -3.863281 3.734375 -4.0625 C 3.554688 -4.269531 3.273438 -4.375 2.890625 -4.375 L 2.3125 -4.375 L 2.3125 0 L 0.609375 0 L 0.609375 -10.765625 L 3.171875 -10.765625 C 4.046875 -10.765625 4.679688 -10.554688 5.078125 -10.140625 C 5.472656 -9.734375 5.671875 -9.113281 5.671875 -8.28125 L 5.671875 -7.4375 C 5.671875 -6.332031 5.300781 -5.609375 4.5625 -5.265625 C 5 -5.085938 5.296875 -4.800781 5.453125 -4.40625 C 5.609375 -4.007812 5.6875 -3.53125 5.6875 -2.96875 L 5.6875 -1.3125 C 5.6875 -1.039062 5.695312 -0.804688 5.71875 -0.609375 C 5.738281 -0.410156 5.789062 -0.207031 5.875 0 Z M 2.3125 -9.21875 L 2.3125 -5.921875 L 2.96875 -5.921875 C 3.28125 -5.921875 3.523438 -6 3.703125 -6.15625 C 3.890625 -6.320312 3.984375 -6.625 3.984375 -7.0625 L 3.984375 -8.125 C 3.984375 -8.507812 3.910156 -8.785156 3.765625 -8.953125 C 3.628906 -9.128906 3.414062 -9.21875 3.125 -9.21875 Z M 2.3125 -9.21875 "/></g></g></g><g fill="#a44f30" fill-opacity="1"><g transform="translate(171.148798, 221.317719)"><g><path d="M 2.3125 -6.234375 L 4.625 -6.234375 L 4.625 -4.6875 L 2.3125 -4.6875 L 2.3125 -1.53125 L 5.234375 -1.53125 L 5.234375 0 L 0.609375 0 L 0.609375 -10.765625 L 5.234375 -10.765625 L 5.234375 -9.21875 L 2.3125 -9.21875 Z M 2.3125 -6.234375 "/></g></g></g><g fill="#a44f30" fill-opacity="1"><g transform="translate(177.576609, 221.317719)"><g/></g></g><g fill="#a44f30" fill-opacity="1"><g transform="translate(180.729079, 221.317719)"><g><path d="M 6.09375 0 L 4.375 0 L 4.09375 -1.953125 L 2.015625 -1.953125 L 1.71875 0 L 0.171875 0 L 1.890625 -10.765625 L 4.359375 -10.765625 Z M 2.234375 -3.40625 L 3.859375 -3.40625 L 3.046875 -8.859375 Z M 2.234375 -3.40625 "/></g></g></g><g fill="#a44f30" fill-opacity="1"><g transform="translate(187.756603, 221.317719)"><g><path d="M 2.125 -7.796875 L 2.125 0 L 0.59375 0 L 0.59375 -10.765625 L 2.71875 -10.765625 L 4.453125 -4.328125 L 4.453125 -10.765625 L 5.96875 -10.765625 L 5.96875 0 L 4.234375 0 Z M 2.125 -7.796875 "/></g></g></g><g fill="#a44f30" fill-opacity="1"><g transform="translate(195.091668, 221.317719)"><g><path d="M 0.609375 -10.765625 L 3.296875 -10.765625 C 4.140625 -10.765625 4.769531 -10.535156 5.1875 -10.078125 C 5.601562 -9.628906 5.8125 -8.972656 5.8125 -8.109375 L 5.8125 -2.65625 C 5.8125 -1.789062 5.601562 -1.128906 5.1875 -0.671875 C 4.769531 -0.222656 4.140625 0 3.296875 0 L 0.609375 0 Z M 2.3125 -9.21875 L 2.3125 -1.53125 L 3.265625 -1.53125 C 3.523438 -1.53125 3.734375 -1.609375 3.890625 -1.765625 C 4.046875 -1.921875 4.125 -2.191406 4.125 -2.578125 L 4.125 -8.171875 C 4.125 -8.566406 4.046875 -8.835938 3.890625 -8.984375 C 3.734375 -9.140625 3.523438 -9.21875 3.265625 -9.21875 Z M 2.3125 -9.21875 "/></g></g></g><g fill="#a44f30" fill-opacity="1"><g transform="translate(202.134565, 221.317719)"><g/></g></g><g fill="#a44f30" fill-opacity="1"><g transform="translate(205.287035, 221.317719)"><g><path d="M 2.3125 0 L 0.609375 0 L 0.609375 -10.765625 L 2.3125 -10.765625 L 2.3125 -6.15625 L 4.234375 -6.15625 L 4.234375 -10.765625 L 5.953125 -10.765625 L 5.953125 0 L 4.234375 0 L 4.234375 -4.609375 L 2.3125 -4.609375 Z M 2.3125 0 "/></g></g></g><g fill="#a44f30" fill-opacity="1"><g transform="translate(212.6221, 221.317719)"><g><path d="M 6.09375 0 L 4.375 0 L 4.09375 -1.953125 L 2.015625 -1.953125 L 1.71875 0 L 0.171875 0 L 1.890625 -10.765625 L 4.359375 -10.765625 Z M 2.234375 -3.40625 L 3.859375 -3.40625 L 3.046875 -8.859375 Z M 2.234375 -3.40625 "/></g></g></g><g fill="#a44f30" fill-opacity="1"><g transform="translate(219.649624, 221.317719)"><g><path d="M 4.15625 0 C 4.132812 -0.0703125 4.113281 -0.140625 4.09375 -0.203125 C 4.070312 -0.265625 4.050781 -0.335938 4.03125 -0.421875 C 4.019531 -0.515625 4.007812 -0.632812 4 -0.78125 C 4 -0.925781 4 -1.109375 4 -1.328125 L 4 -3.015625 C 4 -3.515625 3.910156 -3.863281 3.734375 -4.0625 C 3.554688 -4.269531 3.273438 -4.375 2.890625 -4.375 L 2.3125 -4.375 L 2.3125 0 L 0.609375 0 L 0.609375 -10.765625 L 3.171875 -10.765625 C 4.046875 -10.765625 4.679688 -10.554688 5.078125 -10.140625 C 5.472656 -9.734375 5.671875 -9.113281 5.671875 -8.28125 L 5.671875 -7.4375 C 5.671875 -6.332031 5.300781 -5.609375 4.5625 -5.265625 C 5 -5.085938 5.296875 -4.800781 5.453125 -4.40625 C 5.609375 -4.007812 5.6875 -3.53125 5.6875 -2.96875 L 5.6875 -1.3125 C 5.6875 -1.039062 5.695312 -0.804688 5.71875 -0.609375 C 5.738281 -0.410156 5.789062 -0.207031 5.875 0 Z M 2.3125 -9.21875 L 2.3125 -5.921875 L 2.96875 -5.921875 C 3.28125 -5.921875 3.523438 -6 3.703125 -6.15625 C 3.890625 -6.320312 3.984375 -6.625 3.984375 -7.0625 L 3.984375 -8.125 C 3.984375 -8.507812 3.910156 -8.785156 3.765625 -8.953125 C 3.628906 -9.128906 3.414062 -9.21875 3.125 -9.21875 Z M 2.3125 -9.21875 "/></g></g></g><g fill="#a44f30" fill-opacity="1"><g transform="translate(226.600254, 221.317719)"><g><path d="M 0.609375 -10.765625 L 3.296875 -10.765625 C 4.140625 -10.765625 4.769531 -10.535156 5.1875 -10.078125 C 5.601562 -9.628906 5.8125 -8.972656 5.8125 -8.109375 L 5.8125 -2.65625 C 5.8125 -1.789062 5.601562 -1.128906 5.1875 -0.671875 C 4.769531 -0.222656 4.140625 0 3.296875 0 L 0.609375 0 Z M 2.3125 -9.21875 L 2.3125 -1.53125 L 3.265625 -1.53125 C 3.523438 -1.53125 3.734375 -1.609375 3.890625 -1.765625 C 4.046875 -1.921875 4.125 -2.191406 4.125 -2.578125 L 4.125 -8.171875 C 4.125 -8.566406 4.046875 -8.835938 3.890625 -8.984375 C 3.734375 -9.140625 3.523438 -9.21875 3.265625 -9.21875 Z M 2.3125 -9.21875 "/></g></g></g><g fill="#a44f30" fill-opacity="1"><g transform="translate(233.64315, 221.317719)"><g><path d="M 4.359375 -5.734375 L 3.75 0 L 1.4375 0 L 0.234375 -10.765625 L 1.875 -10.765625 L 2.78125 -2.28125 L 3.59375 -10.765625 L 5.234375 -10.765625 L 6.078125 -2.21875 L 6.953125 -10.765625 L 8.421875 -10.765625 L 7.21875 0 L 4.984375 0 Z M 4.359375 -5.734375 "/></g></g></g><g fill="#a44f30" fill-opacity="1"><g transform="translate(243.069507, 221.317719)"><g><path d="M 6.09375 0 L 4.375 0 L 4.09375 -1.953125 L 2.015625 -1.953125 L 1.71875 0 L 0.171875 0 L 1.890625 -10.765625 L 4.359375 -10.765625 Z M 2.234375 -3.40625 L 3.859375 -3.40625 L 3.046875 -8.859375 Z M 2.234375 -3.40625 "/></g></g></g><g fill="#a44f30" fill-opacity="1"><g transform="translate(250.097025, 221.317719)"><g><path d="M 4.15625 0 C 4.132812 -0.0703125 4.113281 -0.140625 4.09375 -0.203125 C 4.070312 -0.265625 4.050781 -0.335938 4.03125 -0.421875 C 4.019531 -0.515625 4.007812 -0.632812 4 -0.78125 C 4 -0.925781 4 -1.109375 4 -1.328125 L 4 -3.015625 C 4 -3.515625 3.910156 -3.863281 3.734375 -4.0625 C 3.554688 -4.269531 3.273438 -4.375 2.890625 -4.375 L 2.3125 -4.375 L 2.3125 0 L 0.609375 0 L 0.609375 -10.765625 L 3.171875 -10.765625 C 4.046875 -10.765625 4.679688 -10.554688 5.078125 -10.140625 C 5.472656 -9.734375 5.671875 -9.113281 5.671875 -8.28125 L 5.671875 -7.4375 C 5.671875 -6.332031 5.300781 -5.609375 4.5625 -5.265625 C 5 -5.085938 5.296875 -4.800781 5.453125 -4.40625 C 5.609375 -4.007812 5.6875 -3.53125 5.6875 -2.96875 L 5.6875 -1.3125 C 5.6875 -1.039062 5.695312 -0.804688 5.71875 -0.609375 C 5.738281 -0.410156 5.789062 -0.207031 5.875 0 Z M 2.3125 -9.21875 L 2.3125 -5.921875 L 2.96875 -5.921875 C 3.28125 -5.921875 3.523438 -6 3.703125 -6.15625 C 3.890625 -6.320312 3.984375 -6.625 3.984375 -7.0625 L 3.984375 -8.125 C 3.984375 -8.507812 3.910156 -8.785156 3.765625 -8.953125 C 3.628906 -9.128906 3.414062 -9.21875 3.125 -9.21875 Z M 2.3125 -9.21875 "/></g></g></g><g fill="#a44f30" fill-opacity="1"><g transform="translate(257.04766, 221.317719)"><g><path d="M 2.3125 -6.234375 L 4.625 -6.234375 L 4.625 -4.6875 L 2.3125 -4.6875 L 2.3125 -1.53125 L 5.234375 -1.53125 L 5.234375 0 L 0.609375 0 L 0.609375 -10.765625 L 5.234375 -10.765625 L 5.234375 -9.21875 L 2.3125 -9.21875 Z M 2.3125 -6.234375 "/></g></g></g><g fill="#a44f30" fill-opacity="1"><g transform="translate(263.475474, 221.317719)"><g/></g></g><g fill="#a44f30" fill-opacity="1"><g transform="translate(266.627938, 221.317719)"><g><path d="M 2.3125 -6.234375 L 4.625 -6.234375 L 4.625 -4.6875 L 2.3125 -4.6875 L 2.3125 -1.53125 L 5.234375 -1.53125 L 5.234375 0 L 0.609375 0 L 0.609375 -10.765625 L 5.234375 -10.765625 L 5.234375 -9.21875 L 2.3125 -9.21875 Z M 2.3125 -6.234375 "/></g></g></g><g fill="#a44f30" fill-opacity="1"><g transform="translate(273.055752, 221.317719)"><g><path d="M 2.125 -7.796875 L 2.125 0 L 0.59375 0 L 0.59375 -10.765625 L 2.71875 -10.765625 L 4.453125 -4.328125 L 4.453125 -10.765625 L 5.96875 -10.765625 L 5.96875 0 L 4.234375 0 Z M 2.125 -7.796875 "/></g></g></g><g fill="#a44f30" fill-opacity="1"><g transform="translate(280.390811, 221.317719)"><g><path d="M 3.15625 -6 L 5.515625 -6 L 5.515625 -2.578125 C 5.515625 -1.710938 5.300781 -1.046875 4.875 -0.578125 C 4.457031 -0.109375 3.832031 0.125 3 0.125 C 2.164062 0.125 1.535156 -0.109375 1.109375 -0.578125 C 0.691406 -1.046875 0.484375 -1.710938 0.484375 -2.578125 L 0.484375 -8.171875 C 0.484375 -9.046875 0.691406 -9.71875 1.109375 -10.1875 C 1.535156 -10.65625 2.164062 -10.890625 3 -10.890625 C 3.832031 -10.890625 4.457031 -10.65625 4.875 -10.1875 C 5.300781 -9.71875 5.515625 -9.046875 5.515625 -8.171875 L 5.515625 -7.140625 L 3.921875 -7.140625 L 3.921875 -8.28125 C 3.921875 -8.675781 3.835938 -8.953125 3.671875 -9.109375 C 3.515625 -9.265625 3.304688 -9.34375 3.046875 -9.34375 C 2.773438 -9.34375 2.5625 -9.265625 2.40625 -9.109375 C 2.25 -8.953125 2.171875 -8.675781 2.171875 -8.28125 L 2.171875 -2.46875 C 2.171875 -2.082031 2.25 -1.8125 2.40625 -1.65625 C 2.5625 -1.507812 2.773438 -1.4375 3.046875 -1.4375 C 3.304688 -1.4375 3.515625 -1.507812 3.671875 -1.65625 C 3.835938 -1.8125 3.921875 -2.082031 3.921875 -2.46875 L 3.921875 -4.453125 L 3.15625 -4.453125 Z M 3.15625 -6 "/></g></g></g><g fill="#a44f30" fill-opacity="1"><g transform="translate(287.156913, 221.317719)"><g><path d="M 0.609375 -10.765625 L 2.3125 -10.765625 L 2.3125 0 L 0.609375 0 Z M 0.609375 -10.765625 "/></g></g></g><g fill="#a44f30" fill-opacity="1"><g transform="translate(290.847589, 221.317719)"><g><path d="M 2.125 -7.796875 L 2.125 0 L 0.59375 0 L 0.59375 -10.765625 L 2.71875 -10.765625 L 4.453125 -4.328125 L 4.453125 -10.765625 L 5.96875 -10.765625 L 5.96875 0 L 4.234375 0 Z M 2.125 -7.796875 "/></g></g></g><g fill="#a44f30" fill-opacity="1"><g transform="translate(298.182648, 221.317719)"><g><path d="M 2.3125 -6.234375 L 4.625 -6.234375 L 4.625 -4.6875 L 2.3125 -4.6875 L 2.3125 -1.53125 L 5.234375 -1.53125 L 5.234375 0 L 0.609375 0 L 0.609375 -10.765625 L 5.234375 -10.765625 L 5.234375 -9.21875 L 2.3125 -9.21875 Z M 2.3125 -6.234375 "/></g></g></g><g fill="#a44f30" fill-opacity="1"><g transform="translate(304.610462, 221.317719)"><g><path d="M 2.3125 -6.234375 L 4.625 -6.234375 L 4.625 -4.6875 L 2.3125 -4.6875 L 2.3125 -1.53125 L 5.234375 -1.53125 L 5.234375 0 L 0.609375 0 L 0.609375 -10.765625 L 5.234375 -10.765625 L 5.234375 -9.21875 L 2.3125 -9.21875 Z M 2.3125 -6.234375 "/></g></g></g><g fill="#a44f30" fill-opacity="1"><g transform="translate(311.038276, 221.317719)"><g><path d="M 4.15625 0 C 4.132812 -0.0703125 4.113281 -0.140625 4.09375 -0.203125 C 4.070312 -0.265625 4.050781 -0.335938 4.03125 -0.421875 C 4.019531 -0.515625 4.007812 -0.632812 4 -0.78125 C 4 -0.925781 4 -1.109375 4 -1.328125 L 4 -3.015625 C 4 -3.515625 3.910156 -3.863281 3.734375 -4.0625 C 3.554688 -4.269531 3.273438 -4.375 2.890625 -4.375 L 2.3125 -4.375 L 2.3125 0 L 0.609375 0 L 0.609375 -10.765625 L 3.171875 -10.765625 C 4.046875 -10.765625 4.679688 -10.554688 5.078125 -10.140625 C 5.472656 -9.734375 5.671875 -9.113281 5.671875 -8.28125 L 5.671875 -7.4375 C 5.671875 -6.332031 5.300781 -5.609375 4.5625 -5.265625 C 5 -5.085938 5.296875 -4.800781 5.453125 -4.40625 C 5.609375 -4.007812 5.6875 -3.53125 5.6875 -2.96875 L 5.6875 -1.3125 C 5.6875 -1.039062 5.695312 -0.804688 5.71875 -0.609375 C 5.738281 -0.410156 5.789062 -0.207031 5.875 0 Z M 2.3125 -9.21875 L 2.3125 -5.921875 L 2.96875 -5.921875 C 3.28125 -5.921875 3.523438 -6 3.703125 -6.15625 C 3.890625 -6.320312 3.984375 -6.625 3.984375 -7.0625 L 3.984375 -8.125 C 3.984375 -8.507812 3.910156 -8.785156 3.765625 -8.953125 C 3.628906 -9.128906 3.414062 -9.21875 3.125 -9.21875 Z M 2.3125 -9.21875 "/></g></g></g><g fill="#a44f30" fill-opacity="1"><g transform="translate(317.988912, 221.317719)"><g><path d="M 0.609375 -10.765625 L 2.3125 -10.765625 L 2.3125 0 L 0.609375 0 Z M 0.609375 -10.765625 "/></g></g></g><g fill="#a44f30" fill-opacity="1"><g transform="translate(321.679588, 221.317719)"><g><path d="M 2.125 -7.796875 L 2.125 0 L 0.59375 0 L 0.59375 -10.765625 L 2.71875 -10.765625 L 4.453125 -4.328125 L 4.453125 -10.765625 L 5.96875 -10.765625 L 5.96875 0 L 4.234375 0 Z M 2.125 -7.796875 "/></g></g></g><g fill="#a44f30" fill-opacity="1"><g transform="translate(329.014647, 221.317719)"><g><path d="M 3.15625 -6 L 5.515625 -6 L 5.515625 -2.578125 C 5.515625 -1.710938 5.300781 -1.046875 4.875 -0.578125 C 4.457031 -0.109375 3.832031 0.125 3 0.125 C 2.164062 0.125 1.535156 -0.109375 1.109375 -0.578125 C 0.691406 -1.046875 0.484375 -1.710938 0.484375 -2.578125 L 0.484375 -8.171875 C 0.484375 -9.046875 0.691406 -9.71875 1.109375 -10.1875 C 1.535156 -10.65625 2.164062 -10.890625 3 -10.890625 C 3.832031 -10.890625 4.457031 -10.65625 4.875 -10.1875 C 5.300781 -9.71875 5.515625 -9.046875 5.515625 -8.171875 L 5.515625 -7.140625 L 3.921875 -7.140625 L 3.921875 -8.28125 C 3.921875 -8.675781 3.835938 -8.953125 3.671875 -9.109375 C 3.515625 -9.265625 3.304688 -9.34375 3.046875 -9.34375 C 2.773438 -9.34375 2.5625 -9.265625 2.40625 -9.109375 C 2.25 -8.953125 2.171875 -8.675781 2.171875 -8.28125 L 2.171875 -2.46875 C 2.171875 -2.082031 2.25 -1.8125 2.40625 -1.65625 C 2.5625 -1.507812 2.773438 -1.4375 3.046875 -1.4375 C 3.304688 -1.4375 3.515625 -1.507812 3.671875 -1.65625 C 3.835938 -1.8125 3.921875 -2.082031 3.921875 -2.46875 L 3.921875 -4.453125 L 3.15625 -4.453125 Z M 3.15625 -6 "/></g></g></g><g fill="#4e5b66" fill-opacity="1"><g transform="translate(255.235477, 348.749977)"><g><path d="M 3.09375 -10.5 C 3.945312 -10.5 4.566406 -10.296875 4.953125 -9.890625 C 5.335938 -9.492188 5.53125 -8.890625 5.53125 -8.078125 L 5.53125 -7.703125 C 5.53125 -7.171875 5.445312 -6.726562 5.28125 -6.375 C 5.113281 -6.019531 4.84375 -5.757812 4.46875 -5.59375 C 4.914062 -5.425781 5.234375 -5.148438 5.421875 -4.765625 C 5.609375 -4.378906 5.703125 -3.90625 5.703125 -3.34375 L 5.703125 -2.484375 C 5.703125 -1.679688 5.488281 -1.066406 5.0625 -0.640625 C 4.644531 -0.210938 4.019531 0 3.1875 0 L 0.59375 0 L 0.59375 -10.5 Z M 2.25 -4.71875 L 2.25 -1.5 L 3.1875 -1.5 C 3.46875 -1.5 3.679688 -1.570312 3.828125 -1.71875 C 3.972656 -1.875 4.046875 -2.144531 4.046875 -2.53125 L 4.046875 -3.453125 C 4.046875 -3.941406 3.960938 -4.273438 3.796875 -4.453125 C 3.640625 -4.628906 3.367188 -4.71875 2.984375 -4.71875 Z M 2.25 -9 L 2.25 -6.21875 L 2.890625 -6.21875 C 3.203125 -6.21875 3.445312 -6.296875 3.625 -6.453125 C 3.800781 -6.617188 3.890625 -6.910156 3.890625 -7.328125 L 3.890625 -7.921875 C 3.890625 -8.296875 3.820312 -8.566406 3.6875 -8.734375 C 3.550781 -8.910156 3.335938 -9 3.046875 -9 Z M 2.25 -9 "/></g></g></g><g fill="#4e5b66" fill-opacity="1"><g transform="translate(262.075473, 348.749977)"><g><path d="M 2.25 -6.078125 L 4.515625 -6.078125 L 4.515625 -4.578125 L 2.25 -4.578125 L 2.25 -1.5 L 5.09375 -1.5 L 5.09375 0 L 0.59375 0 L 0.59375 -10.5 L 5.09375 -10.5 L 5.09375 -9 L 2.25 -9 Z M 2.25 -6.078125 "/></g></g></g><g fill="#4e5b66" fill-opacity="1"><g transform="translate(268.345473, 348.749977)"><g><path d="M 3.09375 -10.5 C 3.945312 -10.5 4.566406 -10.296875 4.953125 -9.890625 C 5.335938 -9.492188 5.53125 -8.890625 5.53125 -8.078125 L 5.53125 -7.703125 C 5.53125 -7.171875 5.445312 -6.726562 5.28125 -6.375 C 5.113281 -6.019531 4.84375 -5.757812 4.46875 -5.59375 C 4.914062 -5.425781 5.234375 -5.148438 5.421875 -4.765625 C 5.609375 -4.378906 5.703125 -3.90625 5.703125 -3.34375 L 5.703125 -2.484375 C 5.703125 -1.679688 5.488281 -1.066406 5.0625 -0.640625 C 4.644531 -0.210938 4.019531 0 3.1875 0 L 0.59375 0 L 0.59375 -10.5 Z M 2.25 -4.71875 L 2.25 -1.5 L 3.1875 -1.5 C 3.46875 -1.5 3.679688 -1.570312 3.828125 -1.71875 C 3.972656 -1.875 4.046875 -2.144531 4.046875 -2.53125 L 4.046875 -3.453125 C 4.046875 -3.941406 3.960938 -4.273438 3.796875 -4.453125 C 3.640625 -4.628906 3.367188 -4.71875 2.984375 -4.71875 Z M 2.25 -9 L 2.25 -6.21875 L 2.890625 -6.21875 C 3.203125 -6.21875 3.445312 -6.296875 3.625 -6.453125 C 3.800781 -6.617188 3.890625 -6.910156 3.890625 -7.328125 L 3.890625 -7.921875 C 3.890625 -8.296875 3.820312 -8.566406 3.6875 -8.734375 C 3.550781 -8.910156 3.335938 -9 3.046875 -9 Z M 2.25 -9 "/></g></g></g><g fill="#4e5b66" fill-opacity="1"><g transform="translate(275.185469, 348.749977)"><g><path d="M 5.9375 0 L 4.28125 0 L 3.984375 -1.90625 L 1.96875 -1.90625 L 1.6875 0 L 0.171875 0 L 1.84375 -10.5 L 4.265625 -10.5 Z M 2.171875 -3.328125 L 3.765625 -3.328125 L 2.96875 -8.640625 Z M 2.171875 -3.328125 "/></g></g></g><g fill="#4e5b66" fill-opacity="1"><g transform="translate(282.040468, 348.749977)"><g><path d="M 0.390625 -7.984375 C 0.390625 -8.828125 0.59375 -9.476562 1 -9.9375 C 1.40625 -10.394531 2.007812 -10.625 2.8125 -10.625 C 3.625 -10.625 4.234375 -10.394531 4.640625 -9.9375 C 5.046875 -9.476562 5.25 -8.828125 5.25 -7.984375 L 5.25 -7.578125 L 3.6875 -7.578125 L 3.6875 -8.078125 C 3.6875 -8.460938 3.613281 -8.734375 3.46875 -8.890625 C 3.320312 -9.046875 3.117188 -9.125 2.859375 -9.125 C 2.597656 -9.125 2.394531 -9.046875 2.25 -8.890625 C 2.113281 -8.734375 2.046875 -8.460938 2.046875 -8.078125 C 2.046875 -7.722656 2.125 -7.40625 2.28125 -7.125 C 2.4375 -6.851562 2.632812 -6.59375 2.875 -6.34375 C 3.113281 -6.101562 3.367188 -5.859375 3.640625 -5.609375 C 3.921875 -5.367188 4.179688 -5.101562 4.421875 -4.8125 C 4.660156 -4.519531 4.859375 -4.1875 5.015625 -3.8125 C 5.179688 -3.445312 5.265625 -3.015625 5.265625 -2.515625 C 5.265625 -1.671875 5.054688 -1.019531 4.640625 -0.5625 C 4.222656 -0.101562 3.613281 0.125 2.8125 0.125 C 2 0.125 1.382812 -0.101562 0.96875 -0.5625 C 0.550781 -1.019531 0.34375 -1.671875 0.34375 -2.515625 L 0.34375 -3.234375 L 1.90625 -3.234375 L 1.90625 -2.421875 C 1.90625 -2.035156 1.984375 -1.765625 2.140625 -1.609375 C 2.296875 -1.460938 2.503906 -1.390625 2.765625 -1.390625 C 3.023438 -1.390625 3.226562 -1.460938 3.375 -1.609375 C 3.53125 -1.765625 3.609375 -2.035156 3.609375 -2.421875 C 3.609375 -2.773438 3.53125 -3.085938 3.375 -3.359375 C 3.21875 -3.640625 3.019531 -3.898438 2.78125 -4.140625 C 2.539062 -4.390625 2.28125 -4.632812 2 -4.875 C 1.726562 -5.125 1.472656 -5.394531 1.234375 -5.6875 C 0.992188 -5.976562 0.789062 -6.304688 0.625 -6.671875 C 0.46875 -7.046875 0.390625 -7.484375 0.390625 -7.984375 Z M 0.390625 -7.984375 "/></g></g></g><g fill="#4e5b66" fill-opacity="1"><g transform="translate(288.400464, 348.749977)"><g/></g></g><g fill="#4e5b66" fill-opacity="1"><g transform="translate(291.475457, 348.749977)"><g><path d="M 2.0625 -7.609375 L 2.0625 0 L 0.578125 0 L 0.578125 -10.5 L 2.65625 -10.5 L 4.34375 -4.21875 L 4.34375 -10.5 L 5.8125 -10.5 L 5.8125 0 L 4.125 0 Z M 2.0625 -7.609375 "/></g></g></g><g fill="#4e5b66" fill-opacity="1"><g transform="translate(298.630451, 348.749977)"><g><path d="M 2.25 -6.078125 L 4.515625 -6.078125 L 4.515625 -4.578125 L 2.25 -4.578125 L 2.25 -1.5 L 5.09375 -1.5 L 5.09375 0 L 0.59375 0 L 0.59375 -10.5 L 5.09375 -10.5 L 5.09375 -9 L 2.25 -9 Z M 2.25 -6.078125 "/></g></g></g><g fill="#4e5b66" fill-opacity="1"><g transform="translate(304.900451, 348.749977)"><g><path d="M 2.171875 -10.5 L 2.171875 -2.40625 C 2.171875 -2.019531 2.25 -1.75 2.40625 -1.59375 C 2.5625 -1.445312 2.769531 -1.375 3.03125 -1.375 C 3.289062 -1.375 3.5 -1.445312 3.65625 -1.59375 C 3.8125 -1.75 3.890625 -2.019531 3.890625 -2.40625 L 3.890625 -10.5 L 5.4375 -10.5 L 5.4375 -2.5 C 5.4375 -1.65625 5.226562 -1.003906 4.8125 -0.546875 C 4.40625 -0.0859375 3.796875 0.140625 2.984375 0.140625 C 2.171875 0.140625 1.554688 -0.0859375 1.140625 -0.546875 C 0.734375 -1.003906 0.53125 -1.65625 0.53125 -2.5 L 0.53125 -10.5 Z M 2.171875 -10.5 "/></g></g></g><g fill="#4e5b66" fill-opacity="1"><g transform="translate(311.620445, 348.749977)"><g><path d="M 2.25 -6.078125 L 4.515625 -6.078125 L 4.515625 -4.578125 L 2.25 -4.578125 L 2.25 -1.5 L 5.09375 -1.5 L 5.09375 0 L 0.59375 0 L 0.59375 -10.5 L 5.09375 -10.5 L 5.09375 -9 L 2.25 -9 Z M 2.25 -6.078125 "/></g></g></g><g fill="#4e5b66" fill-opacity="1"><g transform="translate(317.890445, 348.749977)"><g/></g></g><g fill="#4e5b66" fill-opacity="1"><g transform="translate(320.965438, 348.749977)"><g><path d="M 5.390625 -3.921875 L 5.390625 -2.515625 C 5.390625 -1.671875 5.179688 -1.019531 4.765625 -0.5625 C 4.347656 -0.101562 3.734375 0.125 2.921875 0.125 C 2.109375 0.125 1.492188 -0.101562 1.078125 -0.5625 C 0.671875 -1.019531 0.46875 -1.671875 0.46875 -2.515625 L 0.46875 -7.984375 C 0.46875 -8.828125 0.671875 -9.476562 1.078125 -9.9375 C 1.492188 -10.394531 2.109375 -10.625 2.921875 -10.625 C 3.734375 -10.625 4.347656 -10.394531 4.765625 -9.9375 C 5.179688 -9.476562 5.390625 -8.828125 5.390625 -7.984375 L 5.390625 -6.953125 L 3.828125 -6.953125 L 3.828125 -8.078125 C 3.828125 -8.460938 3.75 -8.734375 3.59375 -8.890625 C 3.4375 -9.046875 3.226562 -9.125 2.96875 -9.125 C 2.707031 -9.125 2.5 -9.046875 2.34375 -8.890625 C 2.1875 -8.734375 2.109375 -8.460938 2.109375 -8.078125 L 2.109375 -2.421875 C 2.109375 -2.035156 2.1875 -1.765625 2.34375 -1.609375 C 2.5 -1.460938 2.707031 -1.390625 2.96875 -1.390625 C 3.226562 -1.390625 3.4375 -1.460938 3.59375 -1.609375 C 3.75 -1.765625 3.828125 -2.035156 3.828125 -2.421875 L 3.828125 -3.921875 Z M 5.390625 -3.921875 "/></g></g></g><g fill="#4e5b66" fill-opacity="1"><g transform="translate(327.505427, 348.749977)"><g><path d="M 2.140625 -3.484375 L 0.0625 -10.5 L 1.78125 -10.5 L 3.046875 -5.71875 L 4.3125 -10.5 L 5.875 -10.5 L 3.796875 -3.484375 L 3.796875 0 L 2.140625 0 Z M 2.140625 -3.484375 "/></g></g></g><g fill="#4e5b66" fill-opacity="1"><g transform="translate(334.195425, 348.749977)"><g><path d="M 4.046875 0 C 4.023438 -0.0703125 4.003906 -0.132812 3.984375 -0.1875 C 3.960938 -0.25 3.945312 -0.328125 3.9375 -0.421875 C 3.925781 -0.515625 3.914062 -0.628906 3.90625 -0.765625 C 3.90625 -0.898438 3.90625 -1.078125 3.90625 -1.296875 L 3.90625 -2.9375 C 3.90625 -3.425781 3.816406 -3.769531 3.640625 -3.96875 C 3.472656 -4.175781 3.195312 -4.28125 2.8125 -4.28125 L 2.25 -4.28125 L 2.25 0 L 0.59375 0 L 0.59375 -10.5 L 3.09375 -10.5 C 3.945312 -10.5 4.566406 -10.296875 4.953125 -9.890625 C 5.335938 -9.492188 5.53125 -8.890625 5.53125 -8.078125 L 5.53125 -7.265625 C 5.53125 -6.179688 5.171875 -5.46875 4.453125 -5.125 C 4.867188 -4.957031 5.15625 -4.679688 5.3125 -4.296875 C 5.46875 -3.910156 5.546875 -3.441406 5.546875 -2.890625 L 5.546875 -1.28125 C 5.546875 -1.019531 5.554688 -0.789062 5.578125 -0.59375 C 5.597656 -0.394531 5.648438 -0.195312 5.734375 0 Z M 2.25 -9 L 2.25 -5.78125 L 2.890625 -5.78125 C 3.203125 -5.78125 3.445312 -5.859375 3.625 -6.015625 C 3.800781 -6.171875 3.890625 -6.460938 3.890625 -6.890625 L 3.890625 -7.921875 C 3.890625 -8.296875 3.820312 -8.566406 3.6875 -8.734375 C 3.550781 -8.910156 3.335938 -9 3.046875 -9 Z M 2.25 -9 "/></g></g></g><g fill="#4e5b66" fill-opacity="1"><g transform="translate(340.975419, 348.749977)"><g><path d="M 0.59375 -10.5 L 2.25 -10.5 L 2.25 0 L 0.59375 0 Z M 0.59375 -10.5 "/></g></g></g><g fill="#4e5b66" fill-opacity="1"><g transform="translate(344.575421, 348.749977)"><g><path d="M 0.59375 -10.5 L 2.25 -10.5 L 2.25 -1.5 L 4.96875 -1.5 L 4.96875 0 L 0.59375 0 Z M 0.59375 -10.5 "/></g></g></g><g fill="#4e5b66" fill-opacity="1"><g transform="translate(350.440415, 348.749977)"><g><path d="M 0.59375 -10.5 L 2.25 -10.5 L 2.25 -1.5 L 4.96875 -1.5 L 4.96875 0 L 0.59375 0 Z M 0.59375 -10.5 "/></g></g></g><g fill="#4e5b66" fill-opacity="1"><g transform="translate(356.305409, 348.749977)"><g><path d="M 0.59375 -10.5 L 2.25 -10.5 L 2.25 0 L 0.59375 0 Z M 0.59375 -10.5 "/></g></g></g><g fill="#4e5b66" fill-opacity="1"><g transform="translate(359.905411, 348.749977)"><g><path d="M 5.390625 -3.921875 L 5.390625 -2.515625 C 5.390625 -1.671875 5.179688 -1.019531 4.765625 -0.5625 C 4.347656 -0.101562 3.734375 0.125 2.921875 0.125 C 2.109375 0.125 1.492188 -0.101562 1.078125 -0.5625 C 0.671875 -1.019531 0.46875 -1.671875 0.46875 -2.515625 L 0.46875 -7.984375 C 0.46875 -8.828125 0.671875 -9.476562 1.078125 -9.9375 C 1.492188 -10.394531 2.109375 -10.625 2.921875 -10.625 C 3.734375 -10.625 4.347656 -10.394531 4.765625 -9.9375 C 5.179688 -9.476562 5.390625 -8.828125 5.390625 -7.984375 L 5.390625 -6.953125 L 3.828125 -6.953125 L 3.828125 -8.078125 C 3.828125 -8.460938 3.75 -8.734375 3.59375 -8.890625 C 3.4375 -9.046875 3.226562 -9.125 2.96875 -9.125 C 2.707031 -9.125 2.5 -9.046875 2.34375 -8.890625 C 2.1875 -8.734375 2.109375 -8.460938 2.109375 -8.078125 L 2.109375 -2.421875 C 2.109375 -2.035156 2.1875 -1.765625 2.34375 -1.609375 C 2.5 -1.460938 2.707031 -1.390625 2.96875 -1.390625 C 3.226562 -1.390625 3.4375 -1.460938 3.59375 -1.609375 C 3.75 -1.765625 3.828125 -2.035156 3.828125 -2.421875 L 3.828125 -3.921875 Z M 5.390625 -3.921875 "/></g></g></g><g fill="#4e5b66" fill-opacity="1"><g transform="translate(287.6261, 369.749976)"><g><path d="M 3.28125 -3 L 2.3125 -3 L 2 0 L 0.640625 0 L 0.953125 -3 L 0.21875 -3 L 0.34375 -4.171875 L 1.078125 -4.171875 L 1.359375 -6.921875 L 0.609375 -6.921875 L 0.734375 -8.078125 L 1.484375 -8.078125 L 1.734375 -10.5 L 3.09375 -10.5 L 2.828125 -8.078125 L 3.8125 -8.078125 L 4.0625 -10.5 L 5.421875 -10.5 L 5.15625 -8.078125 L 5.921875 -8.078125 L 5.8125 -6.921875 L 5.046875 -6.921875 L 4.75 -4.171875 L 5.515625 -4.171875 L 5.40625 -3 L 4.640625 -3 L 4.3125 0 L 2.96875 0 Z M 2.4375 -4.171875 L 3.40625 -4.171875 L 3.6875 -6.921875 L 2.71875 -6.921875 Z M 2.4375 -4.171875 "/></g></g></g><g fill="#4e5b66" fill-opacity="1"><g transform="translate(294.526097, 369.749976)"><g><path d="M 5.9375 0 L 4.28125 0 L 3.984375 -1.90625 L 1.96875 -1.90625 L 1.6875 0 L 0.171875 0 L 1.84375 -10.5 L 4.265625 -10.5 Z M 2.171875 -3.328125 L 3.765625 -3.328125 L 2.96875 -8.640625 Z M 2.171875 -3.328125 "/></g></g></g><g fill="#4e5b66" fill-opacity="1"><g transform="translate(301.381096, 369.749976)"><g><path d="M 0.203125 -3.40625 L 3.203125 -10.5 L 5.015625 -10.5 L 5.015625 -3.40625 L 5.796875 -3.40625 L 5.796875 -1.90625 L 5.015625 -1.90625 L 5.015625 0 L 3.359375 0 L 3.359375 -1.90625 L 0.203125 -1.90625 Z M 3.359375 -3.40625 L 3.359375 -7.296875 L 1.71875 -3.40625 Z M 3.359375 -3.40625 "/></g></g></g><g fill="#4e5b66" fill-opacity="1"><g transform="translate(308.071094, 369.749976)"><g><path d="M 0.203125 -3.40625 L 3.203125 -10.5 L 5.015625 -10.5 L 5.015625 -3.40625 L 5.796875 -3.40625 L 5.796875 -1.90625 L 5.015625 -1.90625 L 5.015625 0 L 3.359375 0 L 3.359375 -1.90625 L 0.203125 -1.90625 Z M 3.359375 -3.40625 L 3.359375 -7.296875 L 1.71875 -3.40625 Z M 3.359375 -3.40625 "/></g></g></g><g fill="#4e5b66" fill-opacity="1"><g transform="translate(314.761092, 369.749976)"><g><path d="M 2.25 -5.828125 L 4.375 -5.828125 L 4.375 -4.328125 L 2.25 -4.328125 L 2.25 0 L 0.59375 0 L 0.59375 -10.5 L 4.96875 -10.5 L 4.96875 -9 L 2.25 -9 Z M 2.25 -5.828125 "/></g></g></g><g fill="#4e5b66" fill-opacity="1"><g transform="translate(320.671084, 369.749976)"><g><path d="M 3.78125 -7.921875 C 3.78125 -8.390625 3.703125 -8.707031 3.546875 -8.875 C 3.390625 -9.039062 3.179688 -9.125 2.921875 -9.125 C 2.660156 -9.125 2.453125 -9.046875 2.296875 -8.890625 C 2.140625 -8.734375 2.0625 -8.460938 2.0625 -8.078125 L 2.0625 -7.40625 L 0.515625 -7.40625 L 0.515625 -7.984375 C 0.515625 -8.828125 0.71875 -9.476562 1.125 -9.9375 C 1.539062 -10.394531 2.15625 -10.625 2.96875 -10.625 C 3.78125 -10.625 4.394531 -10.394531 4.8125 -9.9375 C 5.226562 -9.476562 5.4375 -8.828125 5.4375 -7.984375 L 5.4375 -7.703125 C 5.4375 -6.585938 5.050781 -5.867188 4.28125 -5.546875 C 4.695312 -5.367188 4.992188 -5.09375 5.171875 -4.71875 C 5.347656 -4.34375 5.4375 -3.882812 5.4375 -3.34375 L 5.4375 -2.515625 C 5.4375 -1.671875 5.226562 -1.019531 4.8125 -0.5625 C 4.394531 -0.101562 3.78125 0.125 2.96875 0.125 C 2.15625 0.125 1.539062 -0.101562 1.125 -0.5625 C 0.71875 -1.019531 0.515625 -1.671875 0.515625 -2.515625 L 0.515625 -3.390625 L 2.0625 -3.390625 L 2.0625 -2.421875 C 2.0625 -2.035156 2.140625 -1.765625 2.296875 -1.609375 C 2.453125 -1.453125 2.660156 -1.375 2.921875 -1.375 C 3.179688 -1.375 3.390625 -1.453125 3.546875 -1.609375 C 3.703125 -1.773438 3.78125 -2.09375 3.78125 -2.5625 L 3.78125 -3.390625 C 3.78125 -3.878906 3.691406 -4.222656 3.515625 -4.421875 C 3.347656 -4.617188 3.078125 -4.71875 2.703125 -4.71875 L 2.140625 -4.71875 L 2.140625 -6.21875 L 2.796875 -6.21875 C 3.097656 -6.21875 3.335938 -6.296875 3.515625 -6.453125 C 3.691406 -6.617188 3.78125 -6.910156 3.78125 -7.328125 Z M 3.78125 -7.921875 "/></g></g></g><g fill="#4e5b66" fill-opacity="1"><g transform="translate(327.361082, 369.749976)"><g><path d="M 2.109375 -2.421875 C 2.109375 -2.035156 2.1875 -1.765625 2.34375 -1.609375 C 2.5 -1.453125 2.707031 -1.375 2.96875 -1.375 C 3.226562 -1.375 3.4375 -1.453125 3.59375 -1.609375 C 3.75 -1.765625 3.828125 -2.035156 3.828125 -2.421875 L 3.828125 -8.078125 C 3.828125 -8.460938 3.75 -8.734375 3.59375 -8.890625 C 3.4375 -9.046875 3.226562 -9.125 2.96875 -9.125 C 2.707031 -9.125 2.5 -9.046875 2.34375 -8.890625 C 2.1875 -8.734375 2.109375 -8.460938 2.109375 -8.078125 Z M 0.46875 -7.984375 C 0.46875 -8.828125 0.679688 -9.476562 1.109375 -9.9375 C 1.535156 -10.394531 2.15625 -10.625 2.96875 -10.625 C 3.78125 -10.625 4.398438 -10.394531 4.828125 -9.9375 C 5.253906 -9.476562 5.46875 -8.828125 5.46875 -7.984375 L 5.46875 -2.515625 C 5.46875 -1.671875 5.253906 -1.019531 4.828125 -0.5625 C 4.398438 -0.101562 3.78125 0.125 2.96875 0.125 C 2.15625 0.125 1.535156 -0.101562 1.109375 -0.5625 C 0.679688 -1.019531 0.46875 -1.671875 0.46875 -2.515625 Z M 0.46875 -7.984375 "/></g></g></g><g fill="#4e5b66" fill-opacity="1"><g transform="translate(334.055784, 369.749976)"><g/></g></g><g fill="#e0b15e" fill-opacity="1"><g transform="translate(143.64083, 347.999977)"><g><path d="M 6.40625 -9.625 L 6.40625 -7.75 L 4.546875 -7.75 L 4.546875 0 L 1.921875 0 L 1.921875 -7.75 L 0.078125 -7.75 L 0.078125 -9.625 Z M 6.40625 -9.625 "/></g></g></g><g fill="#e0b15e" fill-opacity="1"><g transform="translate(152.220829, 347.999977)"><g><path d="M 3.21875 -1.875 L 6.515625 -1.875 L 6.515625 0 L 0.59375 0 L 0.59375 -9.625 L 6.375 -9.625 L 6.375 -7.75 L 3.21875 -7.75 L 3.21875 -5.796875 L 5.9375 -5.796875 L 5.9375 -3.921875 L 3.21875 -3.921875 Z M 3.21875 -1.875 "/></g></g></g><g fill="#e0b15e" fill-opacity="1"><g transform="translate(161.055826, 347.999977)"><g><path d="M 5.96875 -4.921875 L 7.859375 0 L 5.046875 0 L 3.234375 -4.921875 L 5.03125 -9.625 L 7.84375 -9.625 Z M 0.59375 0 L 0.59375 -9.625 L 3.21875 -9.625 L 3.21875 0 Z M 0.59375 0 "/></g></g></g><g fill="#e0b15e" fill-opacity="1"><g transform="translate(171.105819, 347.999977)"><g><path d="M 2.765625 -9.625 L 4.984375 -9.625 C 6.453125 -9.625 7.1875 -9.003906 7.1875 -7.765625 L 7.1875 -1.859375 C 7.1875 -0.617188 6.453125 0 4.984375 0 L 2.765625 0 C 1.296875 0 0.5625 -0.617188 0.5625 -1.859375 L 0.5625 -7.765625 C 0.5625 -9.003906 1.296875 -9.625 2.765625 -9.625 Z M 4.5625 -2.203125 L 4.5625 -7.421875 C 4.5625 -7.640625 4.4375 -7.75 4.1875 -7.75 L 3.5625 -7.75 C 3.3125 -7.75 3.1875 -7.640625 3.1875 -7.421875 L 3.1875 -2.203125 C 3.1875 -1.984375 3.3125 -1.875 3.5625 -1.875 L 4.1875 -1.875 C 4.4375 -1.875 4.5625 -1.984375 4.5625 -2.203125 Z M 4.5625 -2.203125 "/></g></g></g><g fill="#e0b15e" fill-opacity="1"><g transform="translate(186.045811, 347.999977)"><g><path d="M 4.640625 -6.015625 L 4.640625 -7.578125 C 4.640625 -7.796875 4.515625 -7.90625 4.265625 -7.90625 L 3.1875 -7.90625 L 3.1875 -5.6875 L 4.265625 -5.6875 C 4.515625 -5.6875 4.640625 -5.796875 4.640625 -6.015625 Z M 4.640625 -2.0625 L 4.640625 -3.625 C 4.640625 -3.84375 4.515625 -3.953125 4.265625 -3.953125 L 3.1875 -3.953125 L 3.1875 -1.71875 L 4.265625 -1.71875 C 4.515625 -1.71875 4.640625 -1.832031 4.640625 -2.0625 Z M 0.59375 -9.625 L 5.015625 -9.625 C 6.484375 -9.625 7.21875 -9.003906 7.21875 -7.765625 L 7.21875 -6.546875 C 7.21875 -5.671875 6.976562 -5.101562 6.5 -4.84375 C 6.78125 -4.726562 6.96875 -4.546875 7.0625 -4.296875 C 7.164062 -4.054688 7.21875 -3.722656 7.21875 -3.296875 L 7.21875 -1.859375 C 7.21875 -0.617188 6.484375 0 5.015625 0 L 0.59375 0 Z M 0.59375 -9.625 "/></g></g></g><g fill="#e0b15e" fill-opacity="1"><g transform="translate(195.885807, 347.999977)"><g><path d="M 2.765625 -9.625 L 4.984375 -9.625 C 6.453125 -9.625 7.1875 -9.003906 7.1875 -7.765625 L 7.1875 -1.859375 C 7.1875 -0.617188 6.453125 0 4.984375 0 L 2.765625 0 C 1.296875 0 0.5625 -0.617188 0.5625 -1.859375 L 0.5625 -7.765625 C 0.5625 -9.003906 1.296875 -9.625 2.765625 -9.625 Z M 4.5625 -2.203125 L 4.5625 -7.421875 C 4.5625 -7.640625 4.4375 -7.75 4.1875 -7.75 L 3.5625 -7.75 C 3.3125 -7.75 3.1875 -7.640625 3.1875 -7.421875 L 3.1875 -2.203125 C 3.1875 -1.984375 3.3125 -1.875 3.5625 -1.875 L 4.1875 -1.875 C 4.4375 -1.875 4.5625 -1.984375 4.5625 -2.203125 Z M 4.5625 -2.203125 "/></g></g></g><g fill="#e0b15e" fill-opacity="1"><g transform="translate(205.725802, 347.999977)"><g><path d="M 3.21875 -1.875 L 6.203125 -1.875 L 6.203125 0 L 0.59375 0 L 0.59375 -9.625 L 3.21875 -9.625 Z M 3.21875 -1.875 "/></g></g></g><g fill="#e0b15e" fill-opacity="1"><g transform="translate(214.035803, 347.999977)"><g><path d="M 0.75 -9.625 L 5.171875 -9.625 C 6.640625 -9.625 7.375 -9.003906 7.375 -7.765625 L 7.375 -1.859375 C 7.375 -0.617188 6.640625 0 5.171875 0 L 0.75 0 Z M 4.75 -2.0625 L 4.75 -7.578125 C 4.75 -7.796875 4.625 -7.90625 4.375 -7.90625 L 3.375 -7.90625 L 3.375 -1.71875 L 4.375 -1.71875 C 4.625 -1.71875 4.75 -1.832031 4.75 -2.0625 Z M 4.75 -2.0625 "/></g></g></g><g fill="#e0b15e" fill-opacity="1"><g transform="translate(143.64083, 368.999976)"><g><path d="M 9.71875 -5.828125 L 8.25 -5.828125 L 7.78125 -3.78125 L 9.015625 -3.78125 L 9.015625 -2.125 L 7.40625 -2.125 L 6.9375 0 L 4.75 0 L 5.234375 -2.125 L 3.734375 -2.125 L 3.25 0 L 1.0625 0 L 1.546875 -2.125 L 0.453125 -2.125 L 0.453125 -3.78125 L 1.921875 -3.78125 L 2.390625 -5.828125 L 1.15625 -5.828125 L 1.15625 -7.484375 L 2.765625 -7.484375 L 3.234375 -9.609375 L 5.421875 -9.609375 L 4.9375 -7.484375 L 6.4375 -7.484375 L 6.921875 -9.609375 L 9.109375 -9.609375 L 8.625 -7.484375 L 9.71875 -7.484375 Z M 5.609375 -3.78125 L 6.0625 -5.828125 L 4.5625 -5.828125 L 4.109375 -3.78125 Z M 5.609375 -3.78125 "/></g></g></g><g fill="#e0b15e" fill-opacity="1"><g transform="translate(155.910816, 368.999976)"><g><path d="M 3.21875 -1.875 L 6.515625 -1.875 L 6.515625 0 L 0.59375 0 L 0.59375 -9.625 L 6.375 -9.625 L 6.375 -7.75 L 3.21875 -7.75 L 3.21875 -5.796875 L 5.9375 -5.796875 L 5.9375 -3.921875 L 3.21875 -3.921875 Z M 3.21875 -1.875 "/></g></g></g><g fill="#e0b15e" fill-opacity="1"><g transform="translate(164.745811, 368.999976)"><g><path d="M 4.328125 -2.203125 L 4.328125 -7.421875 C 4.328125 -7.640625 4.203125 -7.75 3.953125 -7.75 L 3.5625 -7.75 C 3.3125 -7.75 3.1875 -7.640625 3.1875 -7.421875 L 3.1875 -2.203125 C 3.1875 -1.984375 3.3125 -1.875 3.5625 -1.875 L 3.953125 -1.875 C 4.203125 -1.875 4.328125 -1.984375 4.328125 -2.203125 Z M 6.953125 -7.765625 L 6.953125 -1.859375 C 6.953125 -0.617188 6.21875 0 4.75 0 L 2.765625 0 C 1.296875 0 0.5625 -0.617188 0.5625 -1.859375 L 0.5625 -7.765625 C 0.5625 -9.003906 1.296875 -9.625 2.765625 -9.625 L 4.75 -9.625 C 6.21875 -9.625 6.953125 -9.003906 6.953125 -7.765625 Z M 6.953125 -7.765625 "/></g></g></g><g fill="#e0b15e" fill-opacity="1"><g transform="translate(174.360802, 368.999976)"><g><path d="M 4.640625 -6.015625 L 4.640625 -7.578125 C 4.640625 -7.796875 4.515625 -7.90625 4.265625 -7.90625 L 3.1875 -7.90625 L 3.1875 -5.6875 L 4.265625 -5.6875 C 4.515625 -5.6875 4.640625 -5.796875 4.640625 -6.015625 Z M 4.640625 -2.0625 L 4.640625 -3.625 C 4.640625 -3.84375 4.515625 -3.953125 4.265625 -3.953125 L 3.1875 -3.953125 L 3.1875 -1.71875 L 4.265625 -1.71875 C 4.515625 -1.71875 4.640625 -1.832031 4.640625 -2.0625 Z M 0.59375 -9.625 L 5.015625 -9.625 C 6.484375 -9.625 7.21875 -9.003906 7.21875 -7.765625 L 7.21875 -6.546875 C 7.21875 -5.671875 6.976562 -5.101562 6.5 -4.84375 C 6.78125 -4.726562 6.96875 -4.546875 7.0625 -4.296875 C 7.164062 -4.054688 7.21875 -3.722656 7.21875 -3.296875 L 7.21875 -1.859375 C 7.21875 -0.617188 6.484375 0 5.015625 0 L 0.59375 0 Z M 0.59375 -9.625 "/></g></g></g><g fill="#e0b15e" fill-opacity="1"><g transform="translate(184.200795, 368.999976)"><g><path d="M 4.25 -9.625 L 4.25 0 L 1.625 0 L 1.625 -7.75 L 0.265625 -7.75 L 0.265625 -9.625 Z M 4.25 -9.625 "/></g></g></g><g fill="#e0b15e" fill-opacity="1"><g transform="translate(191.145787, 368.999976)"><g><path d="M 3.296875 -6.34375 L 4.8125 -6.34375 C 6.28125 -6.34375 7.015625 -5.722656 7.015625 -4.484375 L 7.015625 -1.859375 C 7.015625 -0.617188 6.28125 0 4.8125 0 L 2.8125 0 C 1.332031 0 0.59375 -0.617188 0.59375 -1.859375 L 0.59375 -3.375 L 3.21875 -3.375 L 3.21875 -2.203125 C 3.21875 -1.984375 3.34375 -1.875 3.59375 -1.875 L 4.0625 -1.875 C 4.3125 -1.875 4.4375 -1.984375 4.4375 -2.203125 L 4.4375 -4.140625 C 4.4375 -4.359375 4.3125 -4.46875 4.0625 -4.46875 L 0.71875 -4.46875 L 0.71875 -9.625 L 6.875 -9.625 L 6.875 -7.75 L 3.296875 -7.75 Z M 3.296875 -6.34375 "/></g></g></g><g fill="#e0b15e" fill-opacity="1"><g transform="translate(200.71578, 368.999976)"><g><path d="M 3.21875 -1.875 L 6.515625 -1.875 L 6.515625 0 L 0.59375 0 L 0.59375 -9.625 L 6.375 -9.625 L 6.375 -7.75 L 3.21875 -7.75 L 3.21875 -5.796875 L 5.9375 -5.796875 L 5.9375 -3.921875 L 3.21875 -3.921875 Z M 3.21875 -1.875 "/></g></g></g><g fill="#a44f30" fill-opacity="1"><g transform="translate(18.61784, 347.999977)"><g><path d="M 6.40625 -9.625 L 6.40625 -7.75 L 4.546875 -7.75 L 4.546875 0 L 1.921875 0 L 1.921875 -7.75 L 0.078125 -7.75 L 0.078125 -9.625 Z M 6.40625 -9.625 "/></g></g></g><g fill="#a44f30" fill-opacity="1"><g transform="translate(27.197839, 347.999977)"><g><path d="M 3.21875 -1.875 L 6.515625 -1.875 L 6.515625 0 L 0.59375 0 L 0.59375 -9.625 L 6.375 -9.625 L 6.375 -7.75 L 3.21875 -7.75 L 3.21875 -5.796875 L 5.9375 -5.796875 L 5.9375 -3.921875 L 3.21875 -3.921875 Z M 3.21875 -1.875 "/></g></g></g><g fill="#a44f30" fill-opacity="1"><g transform="translate(36.032835, 347.999977)"><g><path d="M 5.96875 -4.921875 L 7.859375 0 L 5.046875 0 L 3.234375 -4.921875 L 5.03125 -9.625 L 7.84375 -9.625 Z M 0.59375 0 L 0.59375 -9.625 L 3.21875 -9.625 L 3.21875 0 Z M 0.59375 0 "/></g></g></g><g fill="#a44f30" fill-opacity="1"><g transform="translate(46.082828, 347.999977)"><g><path d="M 2.765625 -9.625 L 4.984375 -9.625 C 6.453125 -9.625 7.1875 -9.003906 7.1875 -7.765625 L 7.1875 -1.859375 C 7.1875 -0.617188 6.453125 0 4.984375 0 L 2.765625 0 C 1.296875 0 0.5625 -0.617188 0.5625 -1.859375 L 0.5625 -7.765625 C 0.5625 -9.003906 1.296875 -9.625 2.765625 -9.625 Z M 4.5625 -2.203125 L 4.5625 -7.421875 C 4.5625 -7.640625 4.4375 -7.75 4.1875 -7.75 L 3.5625 -7.75 C 3.3125 -7.75 3.1875 -7.640625 3.1875 -7.421875 L 3.1875 -2.203125 C 3.1875 -1.984375 3.3125 -1.875 3.5625 -1.875 L 4.1875 -1.875 C 4.4375 -1.875 4.5625 -1.984375 4.5625 -2.203125 Z M 4.5625 -2.203125 "/></g></g></g><g fill="#a44f30" fill-opacity="1"><g transform="translate(61.02282, 347.999977)"><g><path d="M 4.640625 -6.015625 L 4.640625 -7.578125 C 4.640625 -7.796875 4.515625 -7.90625 4.265625 -7.90625 L 3.1875 -7.90625 L 3.1875 -5.6875 L 4.265625 -5.6875 C 4.515625 -5.6875 4.640625 -5.796875 4.640625 -6.015625 Z M 4.640625 -2.0625 L 4.640625 -3.625 C 4.640625 -3.84375 4.515625 -3.953125 4.265625 -3.953125 L 3.1875 -3.953125 L 3.1875 -1.71875 L 4.265625 -1.71875 C 4.515625 -1.71875 4.640625 -1.832031 4.640625 -2.0625 Z M 0.59375 -9.625 L 5.015625 -9.625 C 6.484375 -9.625 7.21875 -9.003906 7.21875 -7.765625 L 7.21875 -6.546875 C 7.21875 -5.671875 6.976562 -5.101562 6.5 -4.84375 C 6.78125 -4.726562 6.96875 -4.546875 7.0625 -4.296875 C 7.164062 -4.054688 7.21875 -3.722656 7.21875 -3.296875 L 7.21875 -1.859375 C 7.21875 -0.617188 6.484375 0 5.015625 0 L 0.59375 0 Z M 0.59375 -9.625 "/></g></g></g><g fill="#a44f30" fill-opacity="1"><g transform="translate(70.862816, 347.999977)"><g><path d="M 2.765625 -9.625 L 4.984375 -9.625 C 6.453125 -9.625 7.1875 -9.003906 7.1875 -7.765625 L 7.1875 -1.859375 C 7.1875 -0.617188 6.453125 0 4.984375 0 L 2.765625 0 C 1.296875 0 0.5625 -0.617188 0.5625 -1.859375 L 0.5625 -7.765625 C 0.5625 -9.003906 1.296875 -9.625 2.765625 -9.625 Z M 4.5625 -2.203125 L 4.5625 -7.421875 C 4.5625 -7.640625 4.4375 -7.75 4.1875 -7.75 L 3.5625 -7.75 C 3.3125 -7.75 3.1875 -7.640625 3.1875 -7.421875 L 3.1875 -2.203125 C 3.1875 -1.984375 3.3125 -1.875 3.5625 -1.875 L 4.1875 -1.875 C 4.4375 -1.875 4.5625 -1.984375 4.5625 -2.203125 Z M 4.5625 -2.203125 "/></g></g></g><g fill="#a44f30" fill-opacity="1"><g transform="translate(80.702812, 347.999977)"><g><path d="M 3.21875 -1.875 L 6.203125 -1.875 L 6.203125 0 L 0.59375 0 L 0.59375 -9.625 L 3.21875 -9.625 Z M 3.21875 -1.875 "/></g></g></g><g fill="#a44f30" fill-opacity="1"><g transform="translate(89.012812, 347.999977)"><g><path d="M 0.75 -9.625 L 5.171875 -9.625 C 6.640625 -9.625 7.375 -9.003906 7.375 -7.765625 L 7.375 -1.859375 C 7.375 -0.617188 6.640625 0 5.171875 0 L 0.75 0 Z M 4.75 -2.0625 L 4.75 -7.578125 C 4.75 -7.796875 4.625 -7.90625 4.375 -7.90625 L 3.375 -7.90625 L 3.375 -1.71875 L 4.375 -1.71875 C 4.625 -1.71875 4.75 -1.832031 4.75 -2.0625 Z M 4.75 -2.0625 "/></g></g></g><g fill="#a44f30" fill-opacity="1"><g transform="translate(18.61784, 368.999976)"><g><path d="M 9.71875 -5.828125 L 8.25 -5.828125 L 7.78125 -3.78125 L 9.015625 -3.78125 L 9.015625 -2.125 L 7.40625 -2.125 L 6.9375 0 L 4.75 0 L 5.234375 -2.125 L 3.734375 -2.125 L 3.25 0 L 1.0625 0 L 1.546875 -2.125 L 0.453125 -2.125 L 0.453125 -3.78125 L 1.921875 -3.78125 L 2.390625 -5.828125 L 1.15625 -5.828125 L 1.15625 -7.484375 L 2.765625 -7.484375 L 3.234375 -9.609375 L 5.421875 -9.609375 L 4.9375 -7.484375 L 6.4375 -7.484375 L 6.921875 -9.609375 L 9.109375 -9.609375 L 8.625 -7.484375 L 9.71875 -7.484375 Z M 5.609375 -3.78125 L 6.0625 -5.828125 L 4.5625 -5.828125 L 4.109375 -3.78125 Z M 5.609375 -3.78125 "/></g></g></g><g fill="#a44f30" fill-opacity="1"><g transform="translate(30.887825, 368.999976)"><g><path d="M 5.5 0 L 5.203125 -1.4375 L 2.890625 -1.4375 L 2.578125 0 L 0 0 L 2.46875 -9.625 L 5.671875 -9.625 L 8.140625 0 Z M 3.296875 -3.296875 L 4.796875 -3.296875 L 4.0625 -6.765625 Z M 3.296875 -3.296875 "/></g></g></g><g fill="#a44f30" fill-opacity="1"><g transform="translate(41.132813, 368.999976)"><g><path d="M 7.609375 -3.625 L 7.609375 -1.71875 L 6.578125 -1.71875 L 6.578125 0 L 4.125 0 L 4.125 -1.71875 L 0.15625 -1.71875 L 0.15625 -4.046875 L 3.765625 -9.625 L 6.40625 -9.625 L 2.53125 -3.625 L 4.125 -3.625 L 4.125 -5.53125 L 6.578125 -5.53125 L 6.578125 -3.625 Z M 7.609375 -3.625 "/></g></g></g><g fill="#a44f30" fill-opacity="1"><g transform="translate(50.8378, 368.999976)"><g><path d="M 7.609375 -3.625 L 7.609375 -1.71875 L 6.578125 -1.71875 L 6.578125 0 L 4.125 0 L 4.125 -1.71875 L 0.15625 -1.71875 L 0.15625 -4.046875 L 3.765625 -9.625 L 6.40625 -9.625 L 2.53125 -3.625 L 4.125 -3.625 L 4.125 -5.53125 L 6.578125 -5.53125 L 6.578125 -3.625 Z M 7.609375 -3.625 "/></g></g></g><g fill="#a44f30" fill-opacity="1"><g transform="translate(60.542787, 368.999976)"><g><path d="M 6.375 -7.75 L 3.21875 -7.75 L 3.21875 -5.421875 L 5.953125 -5.421875 L 5.953125 -3.6875 L 3.21875 -3.6875 L 3.21875 0 L 0.59375 0 L 0.59375 -9.625 L 6.375 -9.625 Z M 6.375 -7.75 "/></g></g></g><g fill="#a44f30" fill-opacity="1"><g transform="translate(69.242779, 368.999976)"><g><path d="M 3 -7.421875 L 3 -6.484375 L 0.375 -6.484375 L 0.375 -7.765625 C 0.375 -9.003906 1.109375 -9.625 2.578125 -9.625 L 4.421875 -9.625 C 5.890625 -9.625 6.625 -9.003906 6.625 -7.765625 L 6.625 -6.59375 C 6.625 -5.726562 6.382812 -5.164062 5.90625 -4.90625 C 6.1875 -4.78125 6.375 -4.59375 6.46875 -4.34375 C 6.570312 -4.101562 6.625 -3.773438 6.625 -3.359375 L 6.625 -1.859375 C 6.625 -0.617188 5.890625 0 4.421875 0 L 2.578125 0 C 1.109375 0 0.375 -0.617188 0.375 -1.859375 L 0.375 -3.15625 L 3 -3.15625 L 3 -2.203125 C 3 -1.984375 3.125 -1.875 3.375 -1.875 L 3.671875 -1.875 C 3.921875 -1.875 4.046875 -1.984375 4.046875 -2.203125 L 4.046875 -3.6875 C 4.046875 -3.90625 3.921875 -4.015625 3.671875 -4.015625 L 2.453125 -4.015625 L 2.453125 -5.75 L 3.671875 -5.75 C 3.921875 -5.75 4.046875 -5.859375 4.046875 -6.078125 L 4.046875 -7.421875 C 4.046875 -7.640625 3.921875 -7.75 3.671875 -7.75 L 3.375 -7.75 C 3.125 -7.75 3 -7.640625 3 -7.421875 Z M 3 -7.421875 "/></g></g></g><g fill="#a44f30" fill-opacity="1"><g transform="translate(78.497776, 368.999976)"><g><path d="M 4.328125 -2.203125 L 4.328125 -7.421875 C 4.328125 -7.640625 4.203125 -7.75 3.953125 -7.75 L 3.5625 -7.75 C 3.3125 -7.75 3.1875 -7.640625 3.1875 -7.421875 L 3.1875 -2.203125 C 3.1875 -1.984375 3.3125 -1.875 3.5625 -1.875 L 3.953125 -1.875 C 4.203125 -1.875 4.328125 -1.984375 4.328125 -2.203125 Z M 6.953125 -7.765625 L 6.953125 -1.859375 C 6.953125 -0.617188 6.21875 0 4.75 0 L 2.765625 0 C 1.296875 0 0.5625 -0.617188 0.5625 -1.859375 L 0.5625 -7.765625 C 0.5625 -9.003906 1.296875 -9.625 2.765625 -9.625 L 4.75 -9.625 C 6.21875 -9.625 6.953125 -9.003906 6.953125 -7.765625 Z M 6.953125 -7.765625 "/></g></g></g></svg>